<?xml version="1.0" encoding="UTF-8"?>
<svg width="200px" height="200px" viewBox="0 0 200 200" version="1.1" xmlns="http://www.w3.org/2000/svg" xmlns:xlink="http://www.w3.org/1999/xlink">
    <g id="Page-1" stroke="none" stroke-width="1" fill="none" fill-rule="evenodd">
        <g id="Group-65" transform="translate(-446.000000, -6212.000000)" fill-rule="nonzero" fill="#FFFFFF">
            <g id="Group-63" transform="translate(0.000000, 5617.000000)">
                <g id="Group-71" transform="translate(225.000000, 595.000000)">
                    <g id="Group-86">
                        <g id="002-target" transform="translate(221.000000, 0.000000)">
                            <path d="M174.730859,59.0445313 C173.914844,57.6480469 172.120703,57.1769531 170.723437,57.9929688 C169.326172,58.809375 168.855469,60.6035156 169.671484,62.0003906 C177.485156,75.3753906 181.615625,90.68125 181.615625,106.262891 C181.615625,129.735938 172.474609,151.803906 155.876563,168.401953 C139.278516,185 117.210547,194.140625 93.7375,194.140625 C70.2644531,194.140625 48.1964844,184.999609 31.5984375,168.401562 C15.0003906,151.803516 5.859375,129.735547 5.859375,106.2625 C5.859375,82.7894531 15.0003906,60.7214844 31.5984375,44.1234375 C48.1964844,27.5253906 70.2644531,18.384375 93.7375,18.384375 C109.131641,18.384375 124.276563,22.4214844 137.535547,30.0589844 C138.937109,30.865625 140.728906,30.3847656 141.536719,28.9828125 C142.344141,27.5808594 141.8625,25.7894531 140.460547,24.9816406 C126.313672,16.8324219 110.157031,12.525 93.7378906,12.525 C68.6996094,12.525 45.1601562,22.2753906 27.4554687,39.9800781 C9.75039062,57.6847656 0,81.2246094 0,106.2625 C0,131.300391 9.75039062,154.840234 27.4550781,172.544922 C45.1597656,190.249609 68.6992188,200 93.7375,200 C118.775781,200 142.315234,190.249609 160.019922,172.544922 C177.724609,154.840234 187.475,131.300781 187.475,106.2625 C187.475,89.6433594 183.068359,73.315625 174.730859,59.0445313 Z" id="Shape"></path>
                            <path d="M109.663281,106.548047 C108.078125,106.223047 106.530078,107.245703 106.205859,108.830859 C105.001562,114.717187 99.7578125,118.989453 93.7378906,118.989453 C86.7203125,118.989453 81.0109375,113.280078 81.0109375,106.2625 C81.0105469,100.316797 85.0472656,95.2203125 90.8269531,93.8695312 C92.4023437,93.5011719 93.38125,91.9253906 93.0128906,90.35 C92.6445312,88.7746094 91.0695312,87.7957031 89.4933594,88.1640625 C81.0488281,90.1378906 75.1511719,97.5804687 75.1511719,106.262891 C75.1511719,116.511328 83.4890625,124.849219 93.7375,124.849219 C102.528125,124.849219 110.185937,118.606641 111.946094,110.005469 C112.270703,108.420312 111.248437,106.872266 109.663281,106.548047 Z" id="Shape"></path>
                            <path d="M199.776953,17.4652344 C199.323438,16.3703125 198.255078,15.6566406 197.070312,15.6566406 L184.343359,15.6566406 L184.343359,2.9296875 C184.343359,1.74453125 183.629687,0.6765625 182.534766,0.223046875 C181.440625,-0.230078125 180.180078,0.019921875 179.342187,0.858203125 L148.029297,32.1710938 C147.479688,32.7203125 147.171094,33.465625 147.171094,34.2425781 L147.171094,48.6855469 L126.387891,69.46875 C125.134375,68.8472656 123.743359,68.5160156 122.298828,68.5160156 C119.838672,68.5160156 117.530078,69.4695312 115.798828,71.2007812 L102.513672,84.4855469 C99.6546875,87.3449219 99.0839844,91.6316406 100.786719,95.0695312 L91.665625,104.190625 C90.5214844,105.334766 90.5214844,107.189844 91.665625,108.333594 C92.2375,108.905469 92.9875,109.191797 93.7371094,109.191797 C94.4867188,109.191797 95.2367187,108.905859 95.8085938,108.333594 L104.929688,99.2125 C106.212891,99.8480469 107.611719,100.173437 109.013672,100.173437 C111.367578,100.173437 113.721875,99.2773437 115.513672,97.4855469 L128.798438,84.2007812 C130.529687,82.4695312 131.483203,80.1609375 131.483203,77.7007812 C131.483203,76.25625 131.152344,74.865625 130.530469,73.6121094 L151.313672,52.8289062 L165.756641,52.8289062 C166.533594,52.8289062 167.278906,52.5203125 167.828125,51.9707031 L199.141016,20.6578125 C199.979687,19.8199219 200.230469,18.5597656 199.776953,17.4652344 Z M124.655859,80.0578125 L111.371094,93.3425781 C110.071484,94.6425781 107.957031,94.6421875 106.657422,93.3425781 C105.358203,92.0429687 105.358203,89.9285156 106.657422,88.6289062 L119.942578,75.3441406 C120.567187,74.7195312 121.403906,74.3757812 122.299219,74.3757812 C123.194531,74.3757812 124.03125,74.7195312 124.655859,75.3445312 C125.280469,75.9691406 125.624219,76.8058594 125.624219,77.7011719 C125.624219,78.5964844 125.280469,79.4332031 124.655859,80.0578125 Z M164.54375,46.9695313 L157.173438,46.9695313 L175.656641,28.4863281 C176.800781,27.3421875 176.800781,25.4871094 175.656641,24.3433594 C174.5125,23.1992188 172.657422,23.1992188 171.513672,24.3433594 L153.030469,42.8265625 L153.030469,35.45625 L178.483984,10.0027344 L178.483984,18.5863281 C178.483984,20.2042969 179.795703,21.5160156 181.413672,21.5160156 L189.997266,21.5160156 L164.54375,46.9695313 Z" id="Shape"></path>
                            <path d="M155.501172,63.7933594 C154.583594,62.4609375 152.759375,62.125 151.426562,63.0429688 C150.094141,63.9609375 149.758203,65.7851563 150.676172,67.1175781 C158.625781,78.6574219 162.827734,92.19375 162.827734,106.262891 C162.827734,144.359375 131.833984,175.353125 93.7375,175.353125 C55.6410156,175.353125 24.6472656,144.358984 24.6472656,106.2625 C24.6472656,68.1660156 55.6410156,37.1722656 93.7375,37.1722656 C108.125,37.1722656 121.913672,41.5503906 133.613281,49.8339844 C134.933984,50.7683594 136.761719,50.45625 137.696875,49.1359375 C138.632031,47.8152344 138.319141,45.9867188 136.998437,45.0519531 C124.303516,36.0640625 109.344141,31.3132813 93.7371094,31.3132813 C52.4097656,31.3132813 18.7875,64.9355469 18.7875,106.262891 C18.7875,147.590234 52.4097656,181.2125 93.7371094,181.2125 C135.064453,181.2125 168.686719,147.590234 168.686719,106.262891 C168.686719,91.0011719 164.127344,76.3152344 155.501172,63.7933594 Z" id="Shape"></path>
                            <path d="M142.225,77.9066406 C141.406641,76.5101563 139.611719,76.0425781 138.216016,76.8601563 C136.819922,77.678125 136.351562,79.4730469 137.169531,80.8691406 C141.664063,88.5386719 144.039453,97.3195313 144.039453,106.262891 C144.039453,133.999609 121.473828,156.565234 93.7371094,156.565234 C66.0003906,156.565234 43.4347656,133.999609 43.4347656,106.262891 C43.4347656,78.5261719 66.0003906,55.9605469 93.7371094,55.9605469 C102.350781,55.9605469 110.848828,58.1738281 118.3125,62.3613281 C119.724609,63.1535156 121.509766,62.6503906 122.301563,61.2398438 C123.092969,59.8285156 122.591016,58.0429688 121.180078,57.2511719 C112.842578,52.5734375 103.353125,50.1011719 93.7375,50.1011719 C62.7699219,50.1011719 37.5757813,75.2953125 37.5757813,106.262891 C37.5757813,137.230469 62.7699219,162.424609 93.7375,162.424609 C124.705078,162.424609 149.899219,137.230469 149.899219,106.262891 C149.899219,96.2792969 147.245703,86.4738281 142.225,77.9066406 Z" id="Shape"></path>
                            <path d="M130.264063,98.3152344 C129.921484,96.7339844 128.360938,95.7300781 126.780469,96.0722656 C125.199219,96.4148438 124.194922,97.9746094 124.5375,99.5558594 C125.011719,101.744141 125.251953,104.000781 125.251953,106.262891 C125.251953,123.639844 111.114453,137.777344 93.7375,137.777344 C76.3605469,137.777344 62.2230469,123.639844 62.2230469,106.262891 C62.2230469,88.8859375 76.3605469,74.7484375 93.7375,74.7484375 C95.9621094,74.7480469 98.1816406,74.9804687 100.335547,75.4390625 C101.91875,75.7761719 103.474219,74.7664062 103.810937,73.1839844 C104.147656,71.6015625 103.138281,70.0453125 101.555859,69.7085938 C99.0015625,69.1648438 96.3714844,68.8890625 93.7375,68.8890625 C73.1292969,68.8890625 56.3636719,85.6546875 56.3636719,106.262891 C56.3636719,126.871094 73.1292969,143.636719 93.7375,143.636719 C114.345703,143.636719 131.111328,126.871094 131.111328,106.262891 C131.111328,103.584375 130.826172,100.910547 130.264063,98.3152344 Z" id="Shape"></path>
                        </g>
                    </g>
                </g>
            </g>
        </g>
    </g>
</svg>