<?xml version="1.0" encoding="UTF-8"?>
<svg width="37px" height="30px" viewBox="0 0 37 30" version="1.1" xmlns="http://www.w3.org/2000/svg" xmlns:xlink="http://www.w3.org/1999/xlink">
    <!-- Generator: Sketch 45.2 (43514) - http://www.bohemiancoding.com/sketch -->
    <title>TWITTER</title>
    <desc>Created with Sketch.</desc>
    <defs></defs>
    <g id="Page-1" stroke="none" stroke-width="1" fill="none" fill-rule="evenodd">
        <g id="Group-65" transform="translate(-2540.000000, -7496.000000)" fill="#FFFFFF">
            <g id="Group-63" transform="translate(0.000000, 5617.000000)">
                <g id="Group-88" transform="translate(217.000000, 1875.000000)">
                    <g id="SOCIAL" transform="translate(2255.000000, 1.000000)">
                        <path d="M105,6.555 C103.635112,7.15625 102.177392,7.5625 100.640639,7.75 C102.208754,6.8125 103.415576,5.3275 103.980098,3.5625 C102.513596,4.43 100.891537,5.0625 99.1590832,5.39875 C97.7703601,3.92125 95.7945345,3 93.6154811,3 C89.4204584,3 86.0258019,6.39 86.0258019,10.57 C86.0258019,11.16375 86.0885265,11.7425 86.2215027,12.2975 C79.9101512,11.985 74.3113515,8.96875 70.5717095,4.3825 C69.9206279,5.5 69.5442802,6.805 69.5442802,8.1875 C69.5442802,10.8125 70.8928596,13.1325 72.9314098,14.4925 C71.6769173,14.46125 70.5014579,14.1175 69.4815556,13.54625 L69.4815556,13.64125 C69.4815556,17.3125 72.1009358,20.3675 75.5733709,21.0625 C74.9385977,21.23375 74.2649352,21.3275 73.5749644,21.3275 C73.0882213,21.3275 72.6102597,21.28125 72.147352,21.1875 C73.1120567,24.195 75.9196108,26.3825 79.2440157,26.445 C76.6484709,28.47625 73.3704821,29.6875 69.8114871,29.6875 C69.1992948,29.6875 68.5958839,29.64875 68,29.57875 C71.3482403,31.75 75.3387808,33 79.619109,33 C93.5991727,33 101.236523,21.46125 101.236523,11.4525 C101.236523,11.125 101.227741,10.79625 101.212687,10.47625 C102.694243,9.40625 103.980098,8.07875 105,6.555" id="TWITTER"></path>
                    </g>
                </g>
            </g>
        </g>
    </g>
</svg>