<?xml version="1.0" encoding="UTF-8"?>
<svg width="15px" height="13px" viewBox="0 0 15 13" version="1.1" xmlns="http://www.w3.org/2000/svg" xmlns:xlink="http://www.w3.org/1999/xlink">
    <!-- Generator: Sketch 45.2 (43514) - http://www.bohemiancoding.com/sketch -->
    <title>TWITTER</title>
    <desc>Created with Sketch.</desc>
    <defs></defs>
    <g id="Page-1" stroke="none" stroke-width="1" fill="none" fill-rule="evenodd">
        <g id="Group" transform="translate(-1048.000000, -648.000000)" fill="#7E7E7E">
            <g id="Group-19" transform="translate(0.000000, 636.000000)">
                <g id="Group-18" transform="translate(55.000000, 10.000000)">
                    <g id="Group-21" transform="translate(966.000000, 1.000000)">
                        <path d="M42.0364583,2.62427604 C41.4900293,2.86498481 40.9064351,3.02762587 40.2912002,3.10269097 C40.9189909,2.72736545 41.4021386,2.13284983 41.6281433,1.42623698 C41.0410334,1.77353819 40.3916467,2.02675781 39.6980635,2.16137457 C39.1420921,1.56986155 38.3510758,1.20104167 37.4786978,1.20104167 C35.7992321,1.20104167 34.4401908,2.55821875 34.4401908,4.23167014 C34.4401908,4.4693763 34.4653024,4.70107726 34.5185391,4.92326997 C31.9918071,4.79816146 29.7503431,3.59061415 28.2531879,1.7545217 C27.9925292,2.20190972 27.8418594,2.72436285 27.8418594,3.27784288 C27.8418594,4.32875434 28.3817594,5.2575599 29.1978873,5.80203212 C28.6956548,5.78952127 28.2250628,5.65190191 27.8167478,5.42320356 L27.8167478,5.46123655 C27.8167478,6.93101128 28.8654094,8.15407205 30.2555891,8.43231337 C30.0014594,8.50087283 29.7317605,8.53840538 29.4555326,8.53840538 C29.2606664,8.53840538 29.0693158,8.51988932 28.883992,8.48235677 C29.2702088,9.68640104 30.3942053,10.5621606 31.7251216,10.5871823 C30.6860024,11.4003876 29.3736687,11.8853082 27.9488349,11.8853082 C27.7037454,11.8853082 27.4621716,11.8697947 27.2236111,11.8417704 C28.5640698,12.7110243 30.1616716,13.2114583 31.8752891,13.2114583 C37.4721688,13.2114583 40.5297606,8.59195182 40.5297606,4.58497656 C40.5297606,4.45386285 40.526245,4.3222487 40.5202182,4.19413759 C41.1133549,3.76576606 41.6281433,3.23430512 42.0364583,2.62427604" id="TWITTER"></path>
                    </g>
                </g>
            </g>
        </g>
    </g>
</svg>