<?xml version="1.0" encoding="UTF-8"?>
<svg width="15px" height="14px" viewBox="0 0 15 14" version="1.1" xmlns="http://www.w3.org/2000/svg" xmlns:xlink="http://www.w3.org/1999/xlink">
    <!-- Generator: Sketch 45.2 (43514) - http://www.bohemiancoding.com/sketch -->
    <title>GITHUB</title>
    <desc>Created with Sketch.</desc>
    <defs></defs>
    <g id="Page-1" stroke="none" stroke-width="1" fill="none" fill-rule="evenodd">
        <g id="Group" transform="translate(-1083.000000, -647.000000)" fill="#7E7E7E">
            <g id="Group-19" transform="translate(0.000000, 636.000000)">
                <g id="Group-18" transform="translate(55.000000, 10.000000)">
                    <g id="Group-21" transform="translate(966.000000, 1.000000)">
                        <path d="M69.259589,0 C65.2802978,0 62.0538194,3.21625712 62.0538194,7.1839001 C62.0538194,10.3575356 64.1186503,13.0498819 66.982414,13.9995301 C67.3427265,14.0656176 67.4738803,13.8438894 67.4738803,13.6532892 C67.4738803,13.4828027 67.4681153,13.031205 67.4642719,12.4316287 C65.4599736,12.8659863 65.0367265,11.4685714 65.0367265,11.4685714 C64.7090824,10.6391257 64.2368328,10.4178763 64.2368328,10.4178763 C63.5825053,9.97250422 64.2863157,9.98112432 64.2863157,9.98112432 C65.0093428,10.0318872 65.3903132,10.7214956 65.3903132,10.7214956 C66.0331107,11.8196013 67.0765757,11.5025729 67.4873319,11.3186773 C67.5526686,10.8541494 67.7390703,10.5376 67.9446886,10.3580145 C66.3444207,10.1769923 64.6624819,9.56065473 64.6624819,6.80796773 C64.6624819,6.02353813 64.9430453,5.38229806 65.4042453,4.88041637 C65.3297807,4.69843636 65.0828465,3.96812188 65.4748665,2.97920422 C65.4748665,2.97920422 66.0797111,2.78620964 67.4565853,3.71574434 C68.0311636,3.55627239 68.6475382,3.47677586 69.2605499,3.4739025 C69.8726007,3.47677586 70.4889753,3.55627239 71.0645144,3.71574434 C72.4404278,2.78620964 73.0443115,2.97920422 73.0443115,2.97920422 C73.4372924,3.96812188 73.1898778,4.69843636 73.1158936,4.88041637 C73.5780544,5.38229806 73.8566961,6.02353813 73.8566961,6.80796773 C73.8566961,9.56735926 72.1718749,10.1745978 70.5663224,10.3527466 C70.8252669,10.5744749 71.0558669,11.0126636 71.0558669,11.6826374 C71.0558669,12.6433002 71.046739,13.4181519 71.046739,13.6532892 C71.046739,13.845326 71.1769319,14.0689699 71.542529,13.9990512 C74.4034103,13.0470085 76.4663194,10.3565778 76.4663194,7.1839001 C76.4663194,3.21625712 73.2393607,0 69.259589,0" id="GITHUB"></path>
                    </g>
                </g>
            </g>
        </g>
    </g>
</svg>