<?xml version="1.0" encoding="UTF-8"?>
<svg width="81px" height="81px" viewBox="0 0 81 81" version="1.1" xmlns="http://www.w3.org/2000/svg" xmlns:xlink="http://www.w3.org/1999/xlink">
    <!-- Generator: Sketch 45.2 (43514) - http://www.bohemiancoding.com/sketch -->
    <title>hierarchy</title>
    <desc>Created with Sketch.</desc>
    <defs></defs>
    <g id="Page-1" stroke="none" stroke-width="1" fill="none" fill-rule="evenodd">
        <g id="Group" transform="translate(-895.000000, -840.000000)" fill-rule="nonzero" fill="#FF294E">
            <g id="Group-15" transform="translate(88.000000, 703.000000)">
                <g id="Group-71" transform="translate(0.000000, 137.000000)">
                    <g id="Group-87" transform="translate(719.023611, 0.000000)">
                        <path d="M167.773636,73.9628982 C167.125886,73.9628982 166.600743,74.4880412 166.600743,75.1357905 C166.600743,76.5628094 165.439893,77.7236599 164.012874,77.7236599 C162.585855,77.7236599 161.425004,76.5628094 161.425004,75.1357905 C161.425004,73.7087716 162.585855,72.547921 164.012874,72.547921 C164.660623,72.547921 165.185766,72.022778 165.185766,71.3750288 L165.185766,61.3461745 C165.185766,58.62569 162.972597,56.4123641 160.252112,56.4123641 L147.635232,56.4123641 L147.635232,44.826378 C149.791164,44.2985765 151.39615,42.3511062 151.39615,40.0347222 C151.39615,39.3869729 150.871007,38.86183 150.223258,38.86183 C149.575508,38.86183 149.050366,39.3869729 149.050366,40.0347222 C149.050366,41.4617411 147.889359,42.6225917 146.46234,42.6225917 C145.035321,42.6225917 143.87447,41.4617411 143.87447,40.0347222 C143.87447,38.6077033 145.035321,37.4468528 146.46234,37.4468528 C147.110089,37.4468528 147.635232,36.9217098 147.635232,36.2739605 L147.635232,26.2451062 C147.635232,23.5246217 145.422062,21.3114522 142.701578,21.3114522 L130.084698,21.3114522 L130.084698,9.72530979 C132.24063,9.19750827 133.84546,7.24988159 133.84546,4.93365397 C133.84546,4.28590468 133.320317,3.76076172 132.672567,3.76076172 C132.024818,3.76076172 131.499675,4.28590468 131.499675,4.93365397 C131.499675,6.36067288 130.338824,7.52152344 128.911806,7.52152344 C127.484787,7.52152344 126.323936,6.36067288 126.323936,4.93365397 C126.323936,3.50663506 127.484787,2.34578451 128.911806,2.34578451 C129.559555,2.34578451 130.084698,1.82064155 130.084698,1.17289225 C130.084698,0.525142958 129.559555,0 128.911806,0 C126.191321,0 123.978152,2.21316949 123.978152,4.93365397 C123.978152,7.25003798 125.582981,9.19750827 127.738913,9.72530979 L127.738913,21.3112958 L115.12219,21.3112958 C112.401705,21.3112958 110.188536,23.5244653 110.188536,26.2449498 L110.188536,35.24291 C108.032603,35.7707115 106.427617,37.7181818 106.427617,40.0345658 C106.427617,42.3509498 108.032603,44.2984201 110.188536,44.8262217 L110.188536,56.4120513 L97.5716554,56.4120513 C94.8511709,56.4120513 92.6380014,58.6253772 92.6380014,61.3458617 L92.6380014,70.3438219 C90.4819127,70.8719362 88.8770833,72.8194065 88.8770833,75.1357905 C88.8770833,77.856275 91.0902528,80.0694444 93.8107373,80.0694444 C96.5312218,80.0694444 98.7443913,77.856275 98.7443913,75.1357905 C98.7443913,74.4880412 98.2192483,73.9628982 97.571499,73.9628982 C96.9237497,73.9628982 96.3986068,74.4880412 96.3986068,75.1357905 C96.3986068,76.5628094 95.2377562,77.7236599 93.8107373,77.7236599 C92.3837184,77.7236599 91.2228678,76.5628094 91.2228678,75.1357905 C91.2228678,73.7087716 92.3837184,72.547921 93.8107373,72.547921 C94.4584866,72.547921 94.9836296,72.022778 94.9836296,71.3750288 L94.9836296,61.3461745 C94.9836296,59.9191555 96.1444801,58.7581486 97.571499,58.7581486 L110.188379,58.7581486 L110.188379,70.3441347 C108.032447,70.8719362 106.427461,72.8194065 106.427461,75.1357905 C106.427461,77.856275 108.640787,80.0694444 111.361271,80.0694444 C114.081756,80.0694444 116.294925,77.856275 116.294925,75.1357905 C116.294925,74.4880412 115.769782,73.9628982 115.122033,73.9628982 C114.474284,73.9628982 113.949141,74.4880412 113.949141,75.1357905 C113.949141,76.5628094 112.78829,77.7236599 111.361271,77.7236599 C109.934253,77.7236599 108.773246,76.5628094 108.773246,75.1357905 C108.773246,73.7087716 109.934253,72.547921 111.361271,72.547921 C112.009021,72.547921 112.534164,72.022778 112.534164,71.3750288 L112.534164,58.7581486 L127.738913,58.7581486 L127.738913,70.3441347 C125.582981,70.8719362 123.978152,72.8195629 123.978152,75.1357905 C123.978152,77.856275 126.191321,80.0694444 128.911806,80.0694444 C131.63229,80.0694444 133.84546,77.856275 133.84546,75.1357905 C133.84546,74.4880412 133.320317,73.9628982 132.672567,73.9628982 C132.024818,73.9628982 131.499675,74.4880412 131.499675,75.1357905 C131.499675,76.5628094 130.338824,77.7236599 128.911806,77.7236599 C127.484787,77.7236599 126.323936,76.5628094 126.323936,75.1357905 C126.323936,73.7087716 127.484787,72.547921 128.911806,72.547921 C129.559555,72.547921 130.084698,72.022778 130.084698,71.3750288 L130.084698,58.7581486 L145.289447,58.7581486 L145.289447,70.3441347 C143.133515,70.8719362 141.528686,72.8195629 141.528686,75.1357905 C141.528686,77.856275 143.741855,80.0694444 146.46234,80.0694444 C149.182824,80.0694444 151.39615,77.856275 151.39615,75.1357905 C151.39615,74.4880412 150.871007,73.9628982 150.223258,73.9628982 C149.575508,73.9628982 149.050366,74.4880412 149.050366,75.1357905 C149.050366,76.5628094 147.889359,77.7236599 146.46234,77.7236599 C145.035321,77.7236599 143.87447,76.5628094 143.87447,75.1357905 C143.87447,73.7087716 145.035321,72.547921 146.46234,72.547921 C147.110089,72.547921 147.635232,72.022778 147.635232,71.3750288 L147.635232,58.7581486 L160.252112,58.7581486 C161.679131,58.7581486 162.839982,59.9191555 162.839982,61.3461745 L162.839982,70.3441347 C160.684049,70.8719362 159.07922,72.8195629 159.07922,75.1357905 C159.07922,77.856275 161.292389,80.0694444 164.012874,80.0694444 C166.733358,80.0694444 168.946528,77.856275 168.946528,75.1357905 C168.946528,74.4880412 168.421385,73.9628982 167.773636,73.9628982 Z M127.738913,56.4122077 L112.534164,56.4122077 L112.534164,44.826378 C114.690096,44.2985765 116.294925,42.3509498 116.294925,40.0347222 C116.294925,39.3869729 115.769782,38.86183 115.122033,38.86183 C114.474284,38.86183 113.949141,39.3869729 113.949141,40.0347222 C113.949141,41.4617411 112.78829,42.6225917 111.361271,42.6225917 C109.934253,42.6225917 108.773246,41.4617411 108.773246,40.0347222 C108.773246,38.6077033 109.934253,37.4468528 111.361271,37.4468528 C112.009021,37.4468528 112.534164,36.9217098 112.534164,36.2739605 L112.534164,26.2451062 C112.534164,24.8180873 113.695014,23.6572367 115.122033,23.6572367 L127.738913,23.6572367 L127.738913,35.2430664 C125.582981,35.7708679 123.978152,37.7184946 123.978152,40.0347222 C123.978152,42.3509498 125.582981,44.2985765 127.738913,44.826378 L127.738913,56.4122077 Z M145.289291,56.4122077 L130.084698,56.4122077 L130.084698,44.826378 C132.24063,44.2985765 133.84546,42.3509498 133.84546,40.0347222 C133.84546,39.3869729 133.320317,38.86183 132.672567,38.86183 C132.024818,38.86183 131.499675,39.3869729 131.499675,40.0347222 C131.499675,41.4617411 130.338824,42.6225917 128.911806,42.6225917 C127.484787,42.6225917 126.323936,41.4617411 126.323936,40.0347222 C126.323936,38.6077033 127.484787,37.4468528 128.911806,37.4468528 C129.559555,37.4468528 130.084698,36.9217098 130.084698,36.2739605 L130.084698,23.6572367 L142.701422,23.6572367 C144.12844,23.6572367 145.289291,24.8180873 145.289291,26.2451062 L145.289291,35.2430664 C143.133359,35.7708679 141.528529,37.7184946 141.528529,40.0347222 C141.528529,42.3509498 143.133359,44.2985765 145.289291,44.826378 L145.289291,56.4122077 Z" id="hierarchy"></path>
                    </g>
                </g>
            </g>
        </g>
    </g>
</svg>