<?xml version="1.0" encoding="UTF-8"?>
<svg width="105px" height="37px" viewBox="0 0 105 37" version="1.1" xmlns="http://www.w3.org/2000/svg" xmlns:xlink="http://www.w3.org/1999/xlink">
    <!-- Generator: Sketch 45.2 (43514) - http://www.bohemiancoding.com/sketch -->
    <title>Group 31</title>
    <desc>Created with Sketch.</desc>
    <defs></defs>
    <g id="Page-1" stroke="none" stroke-width="1" fill="none" fill-rule="evenodd">
        <g id="Group" transform="translate(-55.000000, -16.000000)" fill="#FFFFFF">
            <g id="header">
                <g id="Group-31" transform="translate(55.000000, 16.000000)">
                    <path d="M35,27.7158322 L35,13 L40.2730697,13 C41.0099511,13 41.7011895,13.0930302 42.3468057,13.2790934 C42.992422,13.4651565 43.575496,13.7408642 44.0960452,14.1062246 C44.6165944,14.471585 45.0272813,14.9570335 45.3281182,15.5625846 C45.6289551,16.1681356 45.7793713,16.859942 45.7793713,17.6380244 L45.7793713,23.1589986 C45.7793713,23.7814645 45.6796572,24.348103 45.480226,24.858931 C45.2807948,25.369759 45.0103837,25.7993893 44.6689845,26.1478349 C44.3275853,26.4962805 43.9219686,26.7905942 43.4521223,27.0307848 C42.9822759,27.2709755 42.4820153,27.4451957 41.9513255,27.5534506 C41.4206357,27.6617055 40.8612227,27.7158322 40.2730697,27.7158322 L35,27.7158322 Z M37.3830219,25.300406 L40.2730697,25.300406 C41.1722002,25.300406 41.9124506,25.1244943 42.4938433,24.7726658 C43.0752359,24.4208372 43.3659279,23.8829536 43.3659279,23.1589986 L43.3659279,17.6380244 C43.3659279,16.9005376 43.0735458,16.3457393 42.488773,15.973613 C41.9040002,15.6014866 41.1654398,15.4154263 40.2730697,15.4154263 L37.3830219,15.4154263 L37.3830219,25.300406 Z M49.703752,24.1231394 C49.703752,23.5750987 49.8034661,23.0845759 50.0028973,22.6515562 C50.2023285,22.2185364 50.4642893,21.8667131 50.7887875,21.5960758 C51.1132857,21.3254384 51.485101,21.1089318 51.9042445,20.9465494 C52.3233881,20.777401 52.7628061,20.6792965 53.222512,20.6522327 C53.3577195,20.6454668 53.4963052,20.6420839 53.6382732,20.6420839 L54.6016225,20.7131258 C55.0613283,20.7807852 55.4838457,20.9059531 55.8691873,21.0886333 L55.8691873,20.4188092 C55.7542609,19.7895774 55.4128668,19.3362666 54.8449949,19.0588633 C54.4596533,18.8694172 54.0540366,18.7746955 53.6281327,18.7746955 C53.4253213,18.7814615 53.2157527,18.8051419 52.9994205,18.8457375 C52.330143,18.9810562 51.7791803,19.2787528 51.346516,19.7388363 L50.0181081,18.5108254 C51.0456858,17.3741486 52.3470393,16.8058187 53.9222077,16.8058187 C54.4630381,16.8058187 54.9801994,16.8785514 55.4737071,17.0240189 C55.9672148,17.1694865 56.4167733,17.3826102 56.8223961,17.6633965 C57.2280188,17.9441827 57.5525122,18.3163035 57.7958858,18.77977 C58.0392595,19.2432364 58.1609445,19.7692799 58.1609445,20.3579161 L58.1609445,27.259134 C57.6877179,27.4350482 57.1942176,27.5822051 56.6804288,27.7006089 C56.16664,27.8190128 55.632578,27.9052771 55.0782269,27.9594046 C54.7672494,27.9864683 54.466417,28 54.1757207,28 C53.9458678,28 53.7160183,27.9898513 53.4861654,27.9695535 C52.9723766,27.9289578 52.4839465,27.822396 52.0208605,27.6498647 C51.5577745,27.4773334 51.1555379,27.2456036 50.8141388,26.9546685 C50.4727396,26.6637333 50.2023285,26.2780809 50.0028973,25.7976996 C49.8034661,25.3173183 49.703752,24.7591371 49.703752,24.1231394 Z M51.9448066,24.1231394 L51.9448066,24.2753721 C51.9448066,24.7219237 52.0529711,25.0838958 52.2693032,25.3612991 C52.5126769,25.672532 52.8473106,25.8687411 53.2732145,25.9499323 C53.584192,26.0108257 53.9019251,26.041272 54.2264233,26.041272 C54.3345894,26.041272 54.4427538,26.0378891 54.5509199,26.0311231 C54.9835842,26.0040594 55.4230023,25.9296353 55.8691873,25.8078484 L55.8691873,23.0372124 C55.5649702,22.8951278 55.2032953,22.7936404 54.7841518,22.732747 C54.520497,22.6921514 54.2568462,22.6718539 53.9931914,22.6718539 C53.8309423,22.6786198 53.6720757,22.6887685 53.516587,22.7023004 C53.0974435,22.742896 52.7374586,22.883287 52.4366218,23.1234777 C52.1357849,23.3636683 51.9718481,23.6968856 51.9448066,24.1231394 Z M62.0650442,25.3714479 L63.7686513,24.2652233 C63.9782231,24.6305837 64.2570846,24.941812 64.6052441,25.1989175 C64.9534036,25.4560229 65.3066282,25.6251687 65.6649283,25.7063599 C65.9218227,25.7672533 66.1685729,25.7976996 66.4051862,25.7976996 C66.4998315,25.7976996 66.5944754,25.7943167 66.6891207,25.7875507 C67.0136189,25.7537211 67.28403,25.6319361 67.5003622,25.4221922 C67.7166943,25.2124482 67.831619,24.938432 67.8451398,24.6001353 C67.8451398,24.4512848 67.8079583,24.3142767 67.7335941,24.1891069 C67.6592299,24.0639371 67.5730364,23.9624496 67.4750109,23.8846414 C67.3769854,23.8068332 67.2434699,23.7357919 67.0744604,23.6715156 C66.9054509,23.6072392 66.7584148,23.5581869 66.6333478,23.5243572 C66.5082808,23.4905276 66.3511043,23.4533155 66.1618137,23.4127199 C65.9049193,23.3653584 65.6733798,23.3163061 65.4671882,23.2655616 C65.2609966,23.2148171 65.0193167,23.1420844 64.7421411,23.0473613 C64.4649655,22.9526382 64.2215955,22.8511507 64.0120238,22.7428958 C63.802452,22.6346409 63.5878132,22.4942498 63.3681008,22.3217185 C63.1483885,22.1491872 62.9675511,21.9614354 62.8255831,21.7584574 C62.6836151,21.5554794 62.5670003,21.3102179 62.4757352,21.0226658 C62.3844701,20.7351136 62.3388382,20.4221938 62.3388382,20.0838972 C62.3388382,19.5155587 62.4605232,19.0115042 62.7038969,18.5717185 C62.9472705,18.1319328 63.2683837,17.7885669 63.6672461,17.5416103 C64.0661085,17.2946537 64.492006,17.1102848 64.9449515,16.988498 C65.3978969,16.8667112 65.8643561,16.8058187 66.344343,16.8058187 C66.9392564,16.8058187 67.5443013,16.9360609 68.1594959,17.1965494 C68.7746904,17.4570378 69.3391736,17.8376159 69.8529625,18.338295 L68.4839925,19.8403248 C68.1932961,19.5493896 67.8316213,19.3227342 67.398957,19.1603518 C66.9595323,18.9912035 66.5403951,18.9066306 66.1415327,18.9066306 L66.1212516,18.9066306 C65.7291496,18.9066306 65.3843754,18.9912035 65.0869187,19.1603518 C64.789462,19.3295002 64.6272154,19.576453 64.6001738,19.9012179 C64.5798927,20.1244937 64.6255246,20.3223943 64.7370708,20.4949256 C64.8486171,20.6674569 65.0108638,20.8061564 65.2238157,20.9110284 C65.4367677,21.0159004 65.6463363,21.0987818 65.8525279,21.1596752 C66.0587195,21.2205686 66.2936391,21.2713124 66.5572939,21.311908 C66.9426356,21.3795673 67.2874097,21.4573744 67.5916268,21.5453315 C67.8958439,21.6332887 68.2101968,21.760148 68.5346951,21.9259134 C68.8591933,22.0916788 69.1312945,22.2878879 69.3510068,22.5145467 C69.5707191,22.7412055 69.7498665,23.0287533 69.8884543,23.3771989 C70.0270421,23.7256445 70.0997151,24.1197542 70.1064754,24.5595399 C70.1064754,25.2293674 69.9476089,25.8163033 69.6298711,26.3203654 C69.3121332,26.8244274 68.9031364,27.2050055 68.4028683,27.462111 C67.9026002,27.7124505 67.3414971,27.8646817 66.7195422,27.9188092 C66.5708139,27.9323411 66.4254679,27.9391069 66.2834999,27.9391069 C65.8102734,27.9391069 65.3505744,27.8782144 64.9043894,27.7564276 C64.3162364,27.5940452 63.7635836,27.3048059 63.2464146,26.8887009 C62.7292456,26.472596 62.3354594,25.9668501 62.0650442,25.3714479 Z M74.0105751,27.7158322 L74.0105751,13 L76.2921918,13 L76.2921918,17.32341 C76.7992203,17.1069001 77.3366624,16.9715835 77.9045343,16.917456 C78.0667834,16.9039242 78.22903,16.8971583 78.3912792,16.8971583 C78.7901415,16.8971583 79.1788575,16.9445191 79.5574388,17.0392422 C80.0915088,17.1745609 80.5748687,17.3876846 81.007533,17.6786198 C81.4401972,17.9695549 81.7883516,18.3738134 82.0520064,18.8914073 C82.3156612,19.4090012 82.4474866,20.002703 82.4474866,20.6725304 L82.4474866,27.7158322 L80.1760104,27.7158322 L80.1760104,20.6522327 C80.1760104,20.2056811 80.0306645,19.8437091 79.7399681,19.5663058 C79.4492718,19.2889025 79.1011175,19.1163738 78.6954947,19.0487145 C78.4994437,19.0148848 78.3000155,19.0013531 78.0972041,19.0081191 C77.8741116,19.0081191 77.6476423,19.0284166 77.4177894,19.0690122 C76.9783647,19.1366715 76.6031693,19.2686052 76.2921918,19.4648173 L76.2921918,27.7158322 L74.0105751,27.7158322 Z M86.9093148,24.2449256 L86.9093148,20.4594046 C86.9093148,19.8504706 87.0309998,19.3058211 87.2743735,18.8254398 C87.5177471,18.3450585 87.8422405,17.9577146 88.2478632,17.6633965 C88.653486,17.3690784 89.1064247,17.1458059 89.6066927,16.9935724 C90.1069608,16.8413389 90.6275022,16.7652233 91.1683326,16.7652233 C91.6956422,16.7652233 92.2043531,16.8413389 92.6944807,16.9935724 C93.1846082,17.1458059 93.6307865,17.3690784 94.0330291,17.6633965 C94.4352717,17.9577146 94.758075,18.3467499 95.0014486,18.8305142 C95.2448223,19.3142785 95.3665073,19.8572365 95.3665073,20.4594046 L95.3665073,23.3924222 L89.221353,23.3924222 L89.221353,24.2449256 C89.2145927,24.5832223 89.3159968,24.8809189 89.5255686,25.1380244 C89.7351404,25.3951298 90.0021713,25.5710415 90.3266696,25.6657645 C90.6038451,25.7469558 90.8979172,25.7909337 91.2088947,25.7976996 C91.2629777,25.7909337 91.3136798,25.7875507 91.3610025,25.7875507 C91.7193026,25.7740189 92.0606966,25.6657656 92.3851948,25.4627876 C92.7096931,25.2598095 92.9564432,24.9857933 93.1254527,24.6407307 L95.0318702,25.7368065 C94.6330078,26.4404636 94.0752849,26.9851131 93.3586846,27.3707713 C92.6420844,27.7564295 91.9119744,27.9492558 91.1683326,27.9492558 C90.6275022,27.9492558 90.1069608,27.8697572 89.6066927,27.7107578 C89.1064247,27.5517583 88.653486,27.325103 88.2478632,27.0307848 C87.8422405,26.7364667 87.5177471,26.3474314 87.2743735,25.8636671 C87.0309998,25.3799029 86.9093148,24.8403277 86.9093148,24.2449256 Z M89.221353,21.5047361 L93.1660148,21.5047361 L93.1660148,20.4188092 C93.1660148,20.033151 93.0274291,19.708391 92.7502535,19.4445196 C92.473078,19.1806482 92.1384442,19.0216512 91.7463422,18.9675237 C91.5570515,18.9404599 91.3677638,18.9235454 91.1784731,18.9167794 C90.9756617,18.9167794 90.7728534,18.933694 90.570042,18.9675237 C90.17794,19.0284171 89.8534466,19.19418 89.5965522,19.4648173 C89.3464182,19.7219228 89.221353,20.0331511 89.221353,20.3985115 L89.221353,21.5047361 Z M99.6458062,27.7158322 L99.6458062,20.5608931 C99.6458062,19.8166404 99.8266436,19.1671205 100.188324,18.6123139 C100.550004,18.0575074 101.035054,17.627877 101.643488,17.32341 C101.934185,17.1745595 102.278959,17.0561574 102.677821,16.9682003 C102.691342,16.9682003 102.711623,16.9648174 102.738664,16.9580514 C102.765706,16.9512855 102.785987,16.9479026 102.799507,16.9479026 C102.982038,16.8937751 103.309911,16.8667118 103.783138,16.8667118 C104.215802,16.8667118 104.621419,16.9073068 105,16.988498 L105,19.0081191 C104.763387,18.9336938 104.506496,18.8964817 104.229321,18.8964817 C103.952145,18.8964817 103.678354,18.9320024 103.407939,19.0030447 C103.137523,19.074087 102.890773,19.1772659 102.667681,19.3125846 C102.444588,19.4479032 102.265441,19.6288893 102.130233,19.855548 C101.995026,20.0822068 101.927423,20.3342341 101.927423,20.6116373 L101.927423,27.7158322 L99.6458062,27.7158322 Z" id="Dasher"></path>
                    <g id="Logo">
                        <polygon id="Rectangle-16" points="7.44186047 5.67751792 9.62032331 2.84217094e-14 9.1079244 4.26157925 10.7684734 4.02018068 11.0542648 7.76838032 8.74548132 7.76838032 9.32788899 5.43021469"></polygon>
                        <g id="Group-11" transform="translate(0.000000, 7.592706)">
                            <rect id="Rectangle-13" fill-opacity="0.6" x="6.65322581" y="11.4833432" width="6.65322581" height="4.04888967"></rect>
                            <g id="Group-9">
                                <path d="M2.49495968,6.85368777 C3.7496907,2.28456259 6.24465455,3.89879556e-16 9.97985123,0 C13.7150479,0 16.2100034,2.28456259 17.4647177,6.85368777 L17.4647177,8.54380588 C17.4647177,10.8718628 15.5774547,12.7591258 13.2493979,12.7591258 L6.71027956,12.7591258 C4.38222268,12.7591258 2.49495968,10.8718628 2.49495968,8.54380588 L2.49495968,6.85368777 Z M9.94468545,10.0522886 C11.7625084,10.0522886 13.2361451,8.5574228 13.2361451,6.71341232 C13.2361451,4.86940185 11.7625084,3.374536 9.94468545,3.374536 C8.12686248,3.374536 6.65322581,4.86940185 6.65322581,6.71341232 C6.65322581,8.5574228 8.12686248,10.0522886 9.94468545,10.0522886 Z" id="Combined-Shape"></path>
                                <g id="Group-8" transform="translate(0.000000, 14.341778)">
                                    <path d="M2.49495968,5.76707023 C2.49495968,5.8194263 2.49495968,0.0142264255 2.49495968,0 C1.1170315,0 0,1.29100265 0,2.88353512 C0,4.47606759 1.1170315,5.76707023 2.49495968,5.76707023 Z" id="Oval-4" fill-opacity="0.6"></path>
                                    <path d="M11.3984823,16.6240806 C11.3984823,16.685348 11.3984823,9.89206843 11.3984823,9.87542058 C9.83149185,9.87542058 8.56119507,11.3861596 8.56119507,13.2497506 C8.56119507,15.1133416 9.83149185,16.6240806 11.3984823,16.6240806 Z" id="Oval-4" fill-opacity="0.6" transform="translate(9.979839, 13.249957) rotate(-90.000000) translate(-9.979839, -13.249957) "></path>
                                    <path d="M19.9596774,5.76707023 C19.9596774,5.8194263 19.9596774,0.0142264255 19.9596774,0 C18.5817492,0 17.4647177,1.29100265 17.4647177,2.88353512 C17.4647177,4.47606759 18.5817492,5.76707023 19.9596774,5.76707023 Z" id="Oval-4" fill-opacity="0.6" transform="translate(18.712198, 2.883711) scale(-1, 1) translate(-18.712198, -2.883711) "></path>
                                    <path d="M2.49495968,0 L17.4647177,0 L17.4647177,3.374536 L2.49495968,3.374536 L2.49495968,0 Z M4.15826613,3.374536 L15.8014113,3.374536 L15.8014113,9.28168407 L15.8014113,9.28168407 C15.8014113,10.6785182 14.6690535,11.810876 13.2722194,11.810876 C12.174761,11.810876 11.0773027,11.810876 9.97984443,11.810876 C8.88238231,11.810876 7.78492019,11.810876 6.68745806,11.810876 C5.29062393,11.810876 4.15826613,10.6785182 4.15826613,9.28168407 L4.15826613,3.374536 Z" id="Combined-Shape"></path>
                                </g>
                            </g>
                        </g>
                        <ellipse id="Oval-6" cx="9.97983871" cy="14.341778" rx="1.66330645" ry="1.687268"></ellipse>
                    </g>
                </g>
            </g>
        </g>
    </g>
</svg>