<?xml version="1.0" encoding="UTF-8"?>
<svg width="81px" height="81px" viewBox="0 0 81 81" version="1.1" xmlns="http://www.w3.org/2000/svg" xmlns:xlink="http://www.w3.org/1999/xlink">
    <!-- Generator: Sketch 45.2 (43514) - http://www.bohemiancoding.com/sketch -->
    <title>002-target</title>
    <desc>Created with Sketch.</desc>
    <defs></defs>
    <g id="Page-1" stroke="none" stroke-width="1" fill="none" fill-rule="evenodd">
        <g id="Group" transform="translate(-176.000000, -840.000000)" fill-rule="nonzero" fill="#FF294E">
            <g id="Group-15" transform="translate(88.000000, 703.000000)">
                <g id="Group-71" transform="translate(0.000000, 137.000000)">
                    <g id="Group-86">
                        <g id="002-target" transform="translate(88.476736, 0.000000)">
                            <path d="M69.9530142,23.6383141 C69.6263246,23.0792354 68.9080454,22.8906344 68.348654,23.2173239 C67.7892626,23.5441699 67.6008179,24.2624491 67.9275075,24.8216842 C71.0556893,30.1763283 72.709311,36.3039865 72.709311,42.5420531 C72.709311,51.9394222 69.0497308,60.7742722 62.4047488,67.4192542 C55.7597668,74.0642361 46.9249169,77.7236599 37.5275477,77.7236599 C28.1301786,77.7236599 19.2953286,74.0640797 12.6503467,67.4190978 C6.00536472,60.7741158 2.34578451,51.9392658 2.34578451,42.5418967 C2.34578451,33.1445276 6.00536472,24.3096776 12.6503467,17.6646956 C19.2953286,11.0197137 28.1301786,7.36013346 37.5275477,7.36013346 C43.6905492,7.36013346 49.7537766,8.97637899 55.0619741,12.0340309 C55.6230858,12.3569672 56.3404267,12.1644565 56.6638322,11.6031885 C56.9870813,11.0419204 56.7942578,10.3247359 56.2329898,10.0013304 C50.5693277,6.73881334 44.1010615,5.01434896 37.5277041,5.01434896 C27.5036978,5.01434896 18.0797431,8.91789076 10.9917206,16.0059132 C3.9035418,23.0939357 0,32.5180467 0,42.5418967 C0,52.5657467 3.9035418,61.9898577 10.9915643,69.0778802 C18.0795867,76.1659026 27.5035414,80.0694444 37.5275477,80.0694444 C47.5515541,80.0694444 56.9755088,76.1659026 64.0635312,69.0778802 C71.1515537,61.9898577 75.0550955,52.565903 75.0550955,42.5418967 C75.0550955,35.8884699 73.2909092,29.3517068 69.9530142,23.6383141 Z" id="Shape"></path>
                            <path d="M43.90339,42.6562146 C43.2687771,42.5261018 42.6490209,42.9355193 42.5192208,43.5701322 C42.0370839,45.9267074 39.9377631,47.637097 37.5277041,47.637097 C34.7182362,47.637097 32.4325038,45.3513646 32.4325038,42.5418967 C32.4323474,40.161551 34.0484366,38.1211876 36.3623184,37.5804061 C36.9930216,37.4329344 37.384924,36.8020748 37.2374524,36.1713715 C37.0899807,35.5406683 36.4594339,35.1487659 35.8284178,35.2962375 C32.4476732,36.0864541 30.0865629,39.0660696 30.0865629,42.5420531 C30.0865629,46.6449866 33.4246143,49.9830379 37.5275477,49.9830379 C41.04685,49.9830379 44.112634,47.4838391 44.8173077,44.0403838 C44.9472641,43.4057709 44.5380029,42.7860147 43.90339,42.6562146 Z" id="Shape"></path>
                            <path d="M79.9801482,6.99215807 C79.7985845,6.55380914 79.3708698,6.26809258 78.8965522,6.26809258 L73.8013519,6.26809258 L73.8013519,1.17289225 C73.8013519,0.69841824 73.5156353,0.270859918 73.0772864,0.0892961968 C72.6392502,-0.0921111382 72.1345938,0.00797566732 71.7991466,0.343579237 L59.2631178,12.879608 C59.0430832,13.0994862 58.9195386,13.39787 58.9195386,13.708921 L58.9195386,19.4911235 L50.5990409,27.8116211 C50.0971994,27.5628116 49.5403102,27.4301965 48.9619961,27.4301965 C47.9770794,27.4301965 47.0528403,27.8119339 46.3597392,28.505035 L41.0410638,33.823554 C39.8964773,34.9682968 39.6679979,36.6844728 40.3496829,38.0608228 L36.6980783,41.7124273 C36.2400248,42.1704808 36.2400248,42.9131562 36.6980783,43.3710533 C36.9270269,43.6000019 37.2272873,43.7146326 37.5273914,43.7146326 C37.8274954,43.7146326 38.1277558,43.6001583 38.3567044,43.3710533 L42.0083089,39.7194488 C42.5220357,39.9738882 43.0820527,40.1041574 43.6433207,40.1041574 C44.5857005,40.1041574 45.5282368,39.7454088 46.2455777,39.0280679 L51.5640967,33.7095489 C52.2571978,33.0164478 52.6389351,32.0922087 52.6389351,31.1072919 C52.6389351,30.5289779 52.5064765,29.972245 52.2575106,29.4704035 L60.5780082,21.1499059 L66.3602106,21.1499059 C66.6712617,21.1499059 66.9696455,21.0263612 67.1895237,20.8063266 L79.7255524,8.27029785 C80.0613124,7.93485067 80.161712,7.43035061 79.9801482,6.99215807 Z M49.905627,32.0509229 L44.587108,37.3694419 C44.066813,37.8898933 43.2202976,37.8897369 42.7000026,37.3694419 C42.179864,36.8491469 42.179864,36.0026314 42.7000026,35.4823364 L48.018678,30.1638174 C48.2687386,29.9137568 48.6037166,29.7761374 48.9621525,29.7761374 C49.3205884,29.7761374 49.6555664,29.9137568 49.905627,30.1639738 C50.1556877,30.4140344 50.293307,30.7490125 50.293307,31.1074483 C50.293307,31.4658842 50.1556877,31.8008622 49.905627,32.0509229 Z M65.8746332,18.8041214 L62.9239491,18.8041214 L70.3236481,11.4044223 C70.7817017,10.9463688 70.7817017,10.2036934 70.3236481,9.74579631 C69.8655946,9.28774278 69.1229192,9.28774278 68.6650221,9.74579631 L61.2653231,17.1454953 L61.2653231,14.1948112 L71.4555674,4.00456692 L71.4555674,7.44098484 C71.4555674,8.08873413 71.9807103,8.61387709 72.6284596,8.61387709 L76.0648775,8.61387709 L65.8746332,18.8041214 Z" id="Shape"></path>
                            <path d="M62.2544622,25.5394942 C61.8871124,25.0060628 61.1567914,24.8715712 60.6232037,25.2390774 C60.0897723,25.6065837 59.9552806,26.3369046 60.3227869,26.870336 C63.5053909,31.4902804 65.1876312,36.9095117 65.1876312,42.5420531 C65.1876312,57.7938748 52.7793694,70.2021365 37.5275477,70.2021365 C22.275726,70.2021365 9.86746433,57.7937184 9.86746433,42.5418967 C9.86746433,27.290075 22.275726,14.8818133 37.5275477,14.8818133 C43.2875434,14.8818133 48.8077999,16.6345835 53.491706,19.9508972 C54.0204458,20.3249717 54.7521742,20.2000195 55.1265614,19.6714361 C55.5009486,19.1426963 55.3756837,18.4106551 54.8469439,18.0364243 C49.7645672,14.4381472 43.775623,12.5361852 37.5273914,12.5361852 C20.9821041,12.5361852 7.52152344,25.9967658 7.52152344,42.5420531 C7.52152344,59.0873404 20.9821041,72.547921 37.5273914,72.547921 C54.0726786,72.547921 67.5332593,59.0873404 67.5332593,42.5420531 C67.5332593,36.4320664 65.7079262,30.5525921 62.2544622,25.5394942 Z" id="Shape"></path>
                            <path d="M56.9393837,31.1897072 C56.6117558,30.6306285 55.8931638,30.4434349 55.3343979,30.7707501 C54.7754757,31.0982216 54.5879693,31.8168136 54.9154408,32.3757358 C56.7148139,35.4462113 57.6657949,38.961604 57.6657949,42.5420531 C57.6657949,53.6463714 48.6317097,62.6804567 37.5273914,62.6804567 C26.4230731,62.6804567 17.3889878,53.6463714 17.3889878,42.5420531 C17.3889878,31.4377348 26.4230731,22.4036495 37.5273914,22.4036495 C40.975851,22.4036495 44.3780204,23.2897305 47.3660807,24.9661845 C47.9314148,25.2833346 48.6460971,25.0819099 48.9630908,24.5172013 C49.2799281,23.95218 49.0789726,23.2373413 48.5141077,22.9203476 C45.1762127,21.0476297 41.3771365,20.057865 37.5275477,20.057865 C25.1297639,20.057865 15.0433596,30.1442692 15.0433596,42.5420531 C15.0433596,54.939837 25.1297639,65.0262412 37.5275477,65.0262412 C49.9253316,65.0262412 60.0117358,54.939837 60.0117358,42.5420531 C60.0117358,38.5451491 58.9494082,34.6195569 56.9393837,31.1897072 Z" id="Shape"></path>
                            <path d="M52.1508556,39.360231 C52.0137054,38.7271819 51.3889448,38.3252709 50.7562085,38.4622647 C50.1231595,38.5994149 49.721092,39.2238627 49.8582422,39.8569118 C50.0480943,40.7329841 50.1442715,41.6364239 50.1442715,42.5420531 C50.1442715,49.498868 44.4843627,55.1587769 37.5275477,55.1587769 C30.5707328,55.1587769 24.910824,49.498868 24.910824,42.5420531 C24.910824,35.5852382 30.5707328,29.9253293 37.5275477,29.9253293 C38.4181639,29.9251729 39.3067471,30.0182224 40.1690575,30.2018191 C40.8028885,30.3367799 41.425616,29.9325231 41.5604205,29.2990049 C41.6952249,28.6654867 41.2911244,28.0424463 40.6576062,27.9076419 C39.6350005,27.6899531 38.5820561,27.5795448 37.5275477,27.5795448 C29.2771109,27.5795448 22.5650395,34.2916162 22.5650395,42.5420531 C22.5650395,50.79249 29.2771109,57.5045614 37.5275477,57.5045614 C45.7779846,57.5045614 52.490056,50.79249 52.490056,42.5420531 C52.490056,41.4697168 52.3758945,40.3992571 52.1508556,39.360231 Z" id="Shape"></path>
                        </g>
                    </g>
                </g>
            </g>
        </g>
    </g>
</svg>