<?xml version="1.0" encoding="UTF-8"?>
<svg width="36px" height="35px" viewBox="0 0 36 35" version="1.1" xmlns="http://www.w3.org/2000/svg" xmlns:xlink="http://www.w3.org/1999/xlink">
    <!-- Generator: Sketch 45.2 (43514) - http://www.bohemiancoding.com/sketch -->
    <title>GITHUB</title>
    <desc>Created with Sketch.</desc>
    <defs></defs>
    <g id="Page-1" stroke="none" stroke-width="1" fill="none" fill-rule="evenodd">
        <g id="Group-65" transform="translate(-2627.000000, -7493.000000)" fill="#FFFFFF">
            <g id="Group-63" transform="translate(0.000000, 5617.000000)">
                <g id="Group-88" transform="translate(217.000000, 1875.000000)">
                    <g id="SOCIAL" transform="translate(2255.000000, 1.000000)">
                        <path d="M172.9988,0 C163.0592,0 155,8.03366913 155,17.9441737 C155,25.8713812 160.1576,32.5964092 167.3108,34.9684708 C168.2108,35.1335462 168.5384,34.5797063 168.5384,34.1036193 C168.5384,33.6777726 168.524,32.5497574 168.5144,31.0521169 C163.508,32.1370689 162.4508,28.6465617 162.4508,28.6465617 C161.6324,26.5747459 160.4528,26.0221022 160.4528,26.0221022 C158.8184,24.9096376 160.5764,24.9311692 160.5764,24.9311692 C162.3824,25.0579662 163.334,26.780492 163.334,26.780492 C164.9396,29.5233752 167.546,28.7314918 168.572,28.2721516 C168.7352,27.111839 169.2008,26.3211518 169.7144,25.8725774 C165.7172,25.4204143 161.516,23.8809069 161.516,17.0051579 C161.516,15.0457847 162.2168,13.444075 163.3688,12.1904589 C163.1828,11.7359035 162.566,9.91170078 163.5452,7.44155088 C163.5452,7.44155088 165.056,6.95948288 168.4952,9.28130417 C169.9304,8.88297007 171.47,8.68440112 173.0012,8.67722393 C174.53,8.68440112 176.0696,8.88297007 177.5072,9.28130417 C180.944,6.95948288 182.4524,7.44155088 182.4524,7.44155088 C183.434,9.91170078 182.816,11.7359035 182.6312,12.1904589 C183.7856,13.444075 184.4816,15.0457847 184.4816,17.0051579 C184.4816,23.8976537 180.2732,25.4144334 176.2628,25.8594192 C176.9096,26.4132591 177.4856,27.5077807 177.4856,29.1812624 C177.4856,31.5808366 177.4628,33.5162858 177.4628,34.1036193 C177.4628,34.5832949 177.788,35.1419196 178.7012,34.9672746 C185.8472,32.589232 191,25.8689888 191,17.9441737 C191,8.03366913 182.9396,0 172.9988,0" id="GITHUB"></path>
                    </g>
                </g>
            </g>
        </g>
    </g>
</svg>