<?xml version="1.0" encoding="UTF-8"?>
<svg width="200px" height="200px" viewBox="0 0 200 200" version="1.1" xmlns="http://www.w3.org/2000/svg" xmlns:xlink="http://www.w3.org/1999/xlink">
    <!-- Generator: Sketch 45.2 (43514) - http://www.bohemiancoding.com/sketch -->
    <title>hierarchy</title>
    <desc>Created with Sketch.</desc>
    <defs></defs>
    <g id="Page-1" stroke="none" stroke-width="1" fill="none" fill-rule="evenodd">
        <g id="Group-65" transform="translate(-2243.000000, -6212.000000)" fill-rule="nonzero" fill="#FFFFFF">
            <g id="Group-63" transform="translate(0.000000, 5617.000000)">
                <g id="Group-71" transform="translate(225.000000, 595.000000)">
                    <g id="Group-87" transform="translate(1796.000000, 0.000000)">
                        <path d="M419.070312,184.746875 C417.452344,184.746875 416.140625,186.058594 416.140625,187.676562 C416.140625,191.241016 413.241016,194.140625 409.676562,194.140625 C406.112109,194.140625 403.2125,191.241016 403.2125,187.676562 C403.2125,184.112109 406.112109,181.2125 409.676562,181.2125 C411.294531,181.2125 412.60625,179.900781 412.60625,178.282813 L412.60625,153.232422 C412.60625,146.437109 407.078125,140.908594 400.282812,140.908594 L368.767969,140.908594 L368.767969,111.96875 C374.153125,110.650391 378.162109,105.785938 378.162109,100 C378.162109,98.3820312 376.850391,97.0703125 375.232422,97.0703125 C373.614453,97.0703125 372.302734,98.3820312 372.302734,100 C372.302734,103.564453 369.402734,106.464062 365.838281,106.464062 C362.273828,106.464062 359.374219,103.564453 359.374219,100 C359.374219,96.4355469 362.273828,93.5359375 365.838281,93.5359375 C367.45625,93.5359375 368.767969,92.2242187 368.767969,90.60625 L368.767969,65.5558594 C368.767969,58.7605469 363.239844,53.2324219 356.444531,53.2324219 L324.929688,53.2324219 L324.929688,24.2921875 C330.314844,22.9738281 334.323438,18.1089844 334.323438,12.3234375 C334.323438,10.7054688 333.011719,9.39375 331.39375,9.39375 C329.775781,9.39375 328.464063,10.7054688 328.464063,12.3234375 C328.464063,15.8878906 325.564453,18.7875 322,18.7875 C318.435547,18.7875 315.535937,15.8878906 315.535937,12.3234375 C315.535937,8.75898438 318.435547,5.859375 322,5.859375 C323.617969,5.859375 324.929688,4.54765625 324.929688,2.9296875 C324.929688,1.31171875 323.617969,0 322,0 C315.204687,0 309.676562,5.528125 309.676562,12.3234375 C309.676562,18.109375 313.685156,22.9738281 319.070312,24.2921875 L319.070312,53.2320312 L287.555859,53.2320312 C280.760547,53.2320312 275.232422,58.7601562 275.232422,65.5554688 L275.232422,88.0308594 C269.847266,89.3492188 265.838281,94.2136719 265.838281,99.9996094 C265.838281,105.785547 269.847266,110.65 275.232422,111.968359 L275.232422,140.907813 L243.717578,140.907813 C236.922266,140.907813 231.394141,146.436328 231.394141,153.231641 L231.394141,175.707031 C226.008594,177.026172 222,181.890625 222,187.676562 C222,194.471875 227.528125,200 234.323438,200 C241.11875,200 246.646875,194.471875 246.646875,187.676562 C246.646875,186.058594 245.335156,184.746875 243.717187,184.746875 C242.099219,184.746875 240.7875,186.058594 240.7875,187.676562 C240.7875,191.241016 237.887891,194.140625 234.323438,194.140625 C230.758984,194.140625 227.859375,191.241016 227.859375,187.676562 C227.859375,184.112109 230.758984,181.2125 234.323438,181.2125 C235.941406,181.2125 237.253125,179.900781 237.253125,178.282813 L237.253125,153.232422 C237.253125,149.667969 240.152734,146.767969 243.717187,146.767969 L275.232031,146.767969 L275.232031,175.707813 C269.846875,177.026172 265.837891,181.890625 265.837891,187.676562 C265.837891,194.471875 271.366406,200 278.161719,200 C284.957031,200 290.485156,194.471875 290.485156,187.676562 C290.485156,186.058594 289.173437,184.746875 287.555469,184.746875 C285.9375,184.746875 284.625781,186.058594 284.625781,187.676562 C284.625781,191.241016 281.726172,194.140625 278.161719,194.140625 C274.597266,194.140625 271.697266,191.241016 271.697266,187.676562 C271.697266,184.112109 274.597266,181.2125 278.161719,181.2125 C279.779688,181.2125 281.091406,179.900781 281.091406,178.282813 L281.091406,146.767969 L319.070312,146.767969 L319.070312,175.707813 C313.685156,177.026172 309.676562,181.891016 309.676562,187.676562 C309.676562,194.471875 315.204687,200 322,200 C328.795312,200 334.323438,194.471875 334.323438,187.676562 C334.323438,186.058594 333.011719,184.746875 331.39375,184.746875 C329.775781,184.746875 328.464063,186.058594 328.464063,187.676562 C328.464063,191.241016 325.564453,194.140625 322,194.140625 C318.435547,194.140625 315.535937,191.241016 315.535937,187.676562 C315.535937,184.112109 318.435547,181.2125 322,181.2125 C323.617969,181.2125 324.929688,179.900781 324.929688,178.282813 L324.929688,146.767969 L362.908594,146.767969 L362.908594,175.707813 C357.523438,177.026172 353.514844,181.891016 353.514844,187.676562 C353.514844,194.471875 359.042969,200 365.838281,200 C372.633594,200 378.162109,194.471875 378.162109,187.676562 C378.162109,186.058594 376.850391,184.746875 375.232422,184.746875 C373.614453,184.746875 372.302734,186.058594 372.302734,187.676562 C372.302734,191.241016 369.402734,194.140625 365.838281,194.140625 C362.273828,194.140625 359.374219,191.241016 359.374219,187.676562 C359.374219,184.112109 362.273828,181.2125 365.838281,181.2125 C367.45625,181.2125 368.767969,179.900781 368.767969,178.282813 L368.767969,146.767969 L400.282812,146.767969 C403.847266,146.767969 406.746875,149.667969 406.746875,153.232422 L406.746875,175.707812 C401.361719,177.026172 397.353125,181.891016 397.353125,187.676562 C397.353125,194.471875 402.88125,200 409.676562,200 C416.471875,200 422,194.471875 422,187.676562 C422,186.058594 420.688281,184.746875 419.070312,184.746875 Z M319.070312,140.908203 L281.091406,140.908203 L281.091406,111.96875 C286.476562,110.650391 290.485156,105.785547 290.485156,100 C290.485156,98.3820313 289.173437,97.0703125 287.555469,97.0703125 C285.9375,97.0703125 284.625781,98.3820313 284.625781,100 C284.625781,103.564453 281.726172,106.464062 278.161719,106.464062 C274.597266,106.464062 271.697266,103.564453 271.697266,100 C271.697266,96.4355469 274.597266,93.5359375 278.161719,93.5359375 C279.779688,93.5359375 281.091406,92.2242188 281.091406,90.60625 L281.091406,65.5558594 C281.091406,61.9914062 283.991016,59.0917969 287.555469,59.0917969 L319.070312,59.0917969 L319.070312,88.03125 C313.685156,89.3496094 309.676562,94.2144531 309.676562,100 C309.676562,105.785547 313.685156,110.650391 319.070312,111.96875 L319.070312,140.908203 Z M362.908203,140.908203 L324.929688,140.908203 L324.929688,111.96875 C330.314844,110.650391 334.323438,105.785547 334.323438,100 C334.323438,98.3820313 333.011719,97.0703125 331.39375,97.0703125 C329.775781,97.0703125 328.464063,98.3820313 328.464063,100 C328.464063,103.564453 325.564453,106.464062 322,106.464062 C318.435547,106.464062 315.535937,103.564453 315.535937,100 C315.535937,96.4355469 318.435547,93.5359375 322,93.5359375 C323.617969,93.5359375 324.929688,92.2242188 324.929688,90.60625 L324.929688,59.0917969 L356.444141,59.0917969 C360.008594,59.0917969 362.908203,61.9914062 362.908203,65.5558594 L362.908203,88.03125 C357.523047,89.3496094 353.514453,94.2144531 353.514453,100 C353.514453,105.785547 357.523047,110.650391 362.908203,111.96875 L362.908203,140.908203 Z" id="hierarchy"></path>
                    </g>
                </g>
            </g>
        </g>
    </g>
</svg>