<?xml version="1.0" encoding="UTF-8"?>
<svg width="238px" height="87px" viewBox="0 0 238 87" version="1.1" xmlns="http://www.w3.org/2000/svg" xmlns:xlink="http://www.w3.org/1999/xlink">
    <!-- Generator: Sketch 45.2 (43514) - http://www.bohemiancoding.com/sketch -->
    <title>LOGO V3</title>
    <desc>Created with Sketch.</desc>
    <defs></defs>
    <g id="Page-1" stroke="none" stroke-width="1" fill="none" fill-rule="evenodd">
        <g id="Group-65" transform="translate(-211.000000, -84.000000)" fill="#FFFFFF">
            <g id="Group-23">
                <g id="Group-16" transform="translate(1.000000, 0.000000)">
                    <g id="Group-10" transform="translate(210.000000, 68.000000)">
                        <g id="LOGO-V3" transform="translate(0.000000, 16.000000)">
                            <path d="M81,63.8881048 L81,31 L92.7943548,31 C94.4425486,31 95.9886521,31.2079112 97.4327117,31.6237399 C98.8767713,32.0395686 100.180942,32.6557419 101.345262,33.4722782 C102.509582,34.2888146 103.428172,35.3737332 104.101058,36.7270665 C104.773945,38.0803999 105.110383,39.6265034 105.110383,41.3654234 L105.110383,53.7041331 C105.110383,55.0952691 104.887351,56.3616374 104.44128,57.5032762 C103.995209,58.644915 103.390377,59.6050868 102.626764,60.3838206 C101.863151,61.1625543 100.955902,61.8203098 99.9049899,62.3571069 C98.8540774,62.8939039 97.735137,63.2832649 96.5481351,63.5252016 C95.3611332,63.7671383 94.1098856,63.8881048 92.7943548,63.8881048 L81,63.8881048 Z M86.3301411,58.4899194 L92.7943548,58.4899194 C94.8054536,58.4899194 96.461183,58.0967781 97.7615927,57.3104839 C99.0620025,56.5241896 99.7121976,55.3220847 99.7121976,53.7041331 L99.7121976,41.3654234 C99.7121976,39.7172297 99.0582223,38.4773227 97.750252,37.6456653 C96.4422818,36.8140079 94.7903326,36.3981855 92.7943548,36.3981855 L86.3301411,36.3981855 L86.3301411,58.4899194 Z M113.888105,55.858871 C113.888105,54.6340665 114.111137,53.5378073 114.557208,52.5700605 C115.003278,51.6023137 115.58921,50.8160313 116.31502,50.2111895 C117.04083,49.6063478 117.872475,49.1224817 118.80998,48.7595766 C119.747485,48.3815505 120.730338,48.1622987 121.758569,48.1018145 C122.060989,48.0866935 122.370966,48.0791331 122.688508,48.0791331 L124.843246,48.2379032 C125.871477,48.3891137 126.816528,48.6688488 127.678427,49.0771169 L127.678427,47.5801411 C127.42137,46.1738841 126.657768,45.1607894 125.387601,44.5408266 C124.525701,44.1174374 123.618452,43.905746 122.665827,43.905746 C122.212195,43.920867 121.74345,43.9737899 121.259577,44.0645161 C119.762593,44.366937 118.530247,45.0322529 117.5625,46.0604839 L114.59123,43.3160282 C116.889628,40.7756929 119.800386,39.5055444 123.323589,39.5055444 C124.533272,39.5055444 125.690015,39.6680931 126.793851,39.9931956 C127.897687,40.318298 128.903221,40.7946037 129.810484,41.422127 C130.717746,42.0496503 131.443546,42.8812952 131.987903,43.9170867 C132.532261,44.9528782 132.804435,46.1285216 132.804435,47.4440524 L132.804435,62.8674395 C131.745962,63.2605866 130.642143,63.5894644 129.492944,63.8540827 C128.343744,64.1187009 127.1492,64.3114913 125.909274,64.4324597 C125.213706,64.4929439 124.54083,64.5231855 123.890625,64.5231855 C123.37651,64.5231855 122.862402,64.5005043 122.348286,64.4551411 C121.199087,64.3644149 120.106608,64.126262 119.070817,63.7406754 C118.035025,63.3550888 117.135336,62.8372008 116.371724,62.186996 C115.608111,61.5367911 115.003278,60.6749046 114.557208,59.6013105 C114.111137,58.5277164 113.888105,57.280249 113.888105,55.858871 Z M118.900706,55.858871 L118.900706,56.1990927 C118.900706,57.1970816 119.142639,58.0060453 119.626512,58.6260081 C120.17087,59.3215761 120.91935,59.7600797 121.871976,59.9415323 C122.567544,60.0776216 123.278222,60.1456653 124.004032,60.1456653 C124.245969,60.1456653 124.487902,60.1381049 124.729839,60.1229839 C125.697585,60.0624997 126.680439,59.8961707 127.678427,59.6239919 L127.678427,53.4319556 C126.99798,53.1144137 126.189017,52.8876015 125.251512,52.7515121 C124.661791,52.6607858 124.07208,52.6154234 123.482359,52.6154234 C123.119454,52.6305444 122.764115,52.6532257 122.416331,52.6834677 C121.478826,52.774194 120.673642,53.0879509 120.000756,53.624748 C119.32787,54.161545 118.96119,54.9062452 118.900706,55.858871 Z M141.536794,58.6486895 L145.347278,56.1764113 C145.816031,56.9929476 146.439764,57.6885052 147.218498,58.2631048 C147.997232,58.8377045 148.787294,59.2157249 149.58871,59.3971774 C150.163309,59.5332668 150.715219,59.6013105 151.244456,59.6013105 C151.45615,59.6013105 151.667842,59.5937501 151.879536,59.578629 C152.605346,59.5030238 153.210179,59.2308491 153.694052,58.7620968 C154.177926,58.2933444 154.43498,57.6809514 154.465222,56.9248992 C154.465222,56.5922362 154.382057,56.2860397 154.215726,56.0063004 C154.049394,55.7265611 153.856604,55.4997489 153.637349,55.3258569 C153.418094,55.1519649 153.119458,54.9931963 152.741431,54.8495464 C152.363405,54.7058965 152.034528,54.5962705 151.754788,54.5206653 C151.475049,54.4450601 151.12349,54.3618956 150.700101,54.2711694 C150.125501,54.1653221 149.607613,54.0556961 149.146421,53.9422883 C148.68523,53.8288805 148.14466,53.6663317 147.524698,53.4546371 C146.904735,53.2429425 146.360385,53.0161302 145.891633,52.7741935 C145.422881,52.5322569 144.942795,52.2184999 144.451361,51.8329133 C143.959927,51.4473267 143.555445,51.027724 143.237903,50.5740927 C142.920361,50.1204614 142.659527,49.5723318 142.455393,48.9296875 C142.251259,48.2870432 142.149194,47.5877054 142.149194,46.8316532 C142.149194,45.5614856 142.421368,44.4349848 142.965726,43.4521169 C143.510083,42.4692491 144.228322,41.7018677 145.120464,41.1499496 C146.012605,40.5980315 146.965217,40.1859893 147.978327,39.9138105 C148.991437,39.6416317 150.034773,39.5055444 151.108367,39.5055444 C152.439019,39.5055444 153.792332,39.7966201 155.168347,40.3787802 C156.544362,40.9609404 157.80695,41.8114863 158.956149,42.9304435 L155.894153,46.2872984 C155.243948,45.6370935 154.434985,45.1305462 153.467238,44.7676411 C152.48437,44.389615 151.546879,44.2006048 150.654738,44.2006048 L150.609375,44.2006048 C149.732354,44.2006048 148.961193,44.389615 148.295867,44.7676411 C147.630541,45.1456672 147.267641,45.697577 147.207157,46.4233871 C147.161794,46.9223815 147.26386,47.3646654 147.513357,47.750252 C147.762854,48.1358386 148.125754,48.4458154 148.602067,48.6801915 C149.078379,48.9145677 149.547125,49.0997977 150.008317,49.2358871 C150.469508,49.3719765 150.994957,49.4853826 151.584677,49.5761089 C152.446577,49.7273193 153.217739,49.9012087 153.898185,50.0977823 C154.578632,50.2943558 155.28175,50.5778711 156.00756,50.9483367 C156.733371,51.3188023 157.341983,51.7573059 157.833417,52.2638609 C158.324851,52.7704158 158.725553,53.4130505 159.035534,54.1917843 C159.345516,54.970518 159.508064,55.8513056 159.523185,56.8341734 C159.523185,58.3311567 159.167846,59.6428875 158.457157,60.7694052 C157.746468,61.895923 156.831659,62.7464689 155.712702,63.3210685 C154.593744,63.8805472 153.338717,64.2207655 151.947581,64.3417339 C151.614918,64.371976 151.28982,64.3870968 150.972278,64.3870968 C149.913805,64.3870968 148.88559,64.2510094 147.887601,63.9788306 C146.57207,63.6159256 145.335943,62.9695107 144.179183,62.0395665 C143.022424,61.1096224 142.141636,59.9793413 141.536794,58.6486895 Z M168.255544,63.8881048 L168.255544,31 L173.358871,31 L173.358871,40.6622984 C174.492949,40.178425 175.695054,39.8760087 176.965222,39.7550403 C177.328127,39.7247982 177.691026,39.7096774 178.053931,39.7096774 C178.946073,39.7096774 179.81552,39.8155231 180.662298,40.0272177 C181.856861,40.3296386 182.937999,40.8059443 183.905746,41.4561492 C184.873493,42.1063541 185.652215,43.0098228 186.241935,44.1665827 C186.831656,45.3233425 187.126512,46.6501941 187.126512,48.1471774 L187.126512,63.8881048 L182.045867,63.8881048 L182.045867,48.1018145 C182.045867,47.1038257 181.720769,46.294862 181.070565,45.6748992 C180.42036,45.0549364 179.641638,44.6693556 178.734375,44.5181452 C178.295865,44.4425399 177.849801,44.4122983 177.396169,44.4274194 C176.897175,44.4274194 176.390628,44.4727818 175.876512,44.5635081 C174.893644,44.7147185 174.054439,45.0095744 173.358871,45.4480847 L173.358871,63.8881048 L168.255544,63.8881048 Z M197.106351,56.1310484 L197.106351,47.6708669 C197.106351,46.309973 197.378526,45.0927473 197.922883,44.0191532 C198.467241,42.9455591 199.19304,42.0798924 200.100302,41.422127 C201.007565,40.7643616 202.02066,40.2653747 203.139617,39.9251512 C204.258574,39.5849277 205.422877,39.4148185 206.63256,39.4148185 C207.812002,39.4148185 208.949843,39.5849277 210.046119,39.9251512 C211.142395,40.2653747 212.140368,40.7643616 213.040071,41.422127 C213.939773,42.0798924 214.661792,42.9493394 215.206149,44.030494 C215.750507,45.1116486 216.022681,46.3250941 216.022681,47.6708669 L216.022681,54.2258065 L202.277722,54.2258065 L202.277722,56.1310484 C202.262601,56.8871006 202.489413,57.5524165 202.958165,58.1270161 C203.426918,58.7016158 204.02419,59.094757 204.75,59.3064516 C205.369963,59.4879041 206.027718,59.5861894 206.723286,59.6013105 C206.844255,59.5861894 206.957661,59.578629 207.063508,59.578629 C207.864923,59.5483869 208.628525,59.3064539 209.354335,58.8528226 C210.080145,58.3991913 210.632055,57.7867982 211.010081,57.015625 L215.274194,59.4652218 C214.382052,61.0378103 213.134585,62.255036 211.531754,63.1169355 C209.928923,63.978835 208.295875,64.4097782 206.63256,64.4097782 C205.422877,64.4097782 204.258574,64.2321086 203.139617,63.8767641 C202.02066,63.5214196 201.007565,63.0148722 200.100302,62.3571069 C199.19304,61.6993415 198.467241,60.8298945 197.922883,59.7487399 C197.378526,58.6675853 197.106351,57.4617002 197.106351,56.1310484 Z M202.277722,50.0070565 L211.100806,50.0070565 L211.100806,47.5801411 C211.100806,46.7182417 210.79083,45.9924425 210.170867,45.4027218 C209.550904,44.8130011 208.802424,44.4576619 207.925403,44.3366935 C207.502014,44.2762094 207.078631,44.2384073 206.655242,44.2232863 C206.201611,44.2232863 205.747986,44.2610883 205.294355,44.3366935 C204.417334,44.4727829 203.691535,44.8432429 203.116935,45.4480847 C202.557457,46.0226843 202.277722,46.7182419 202.277722,47.5347782 L202.277722,50.0070565 Z M225.594254,63.8881048 L225.594254,47.8976815 C225.594254,46.2343667 225.998736,44.7827683 226.807712,43.5428427 C227.616688,42.3029172 228.701606,41.3427453 230.0625,40.6622984 C230.712705,40.3296354 231.483867,40.0650211 232.376008,39.8684476 C232.40625,39.8684476 232.451613,39.8608872 232.512097,39.8457661 C232.572581,39.8306451 232.617943,39.8230847 232.648185,39.8230847 C233.056454,39.7021163 233.789813,39.6416331 234.848286,39.6416331 C235.816033,39.6416331 236.723282,39.732358 237.57006,39.9138105 L237.57006,44.4274194 C237.040824,44.2610879 236.466233,44.1779234 235.84627,44.1779234 C235.226307,44.1779234 234.613914,44.2573077 234.009073,44.4160786 C233.404231,44.5748496 232.852321,44.805442 232.353327,45.1078629 C231.854332,45.4102838 231.453631,45.8147656 231.15121,46.3213206 C230.848789,46.8278755 230.697581,47.3911259 230.697581,48.0110887 L230.697581,63.8881048 L225.594254,63.8881048 Z" id="Dasher"></path>
                            <g id="Group-12">
                                <polygon id="Rectangle-16" points="17.9637097 13.4746425 23.1920205 2.84217094e-14 21.9622631 10.1141481 25.9475806 9.54122882 26.6334802 18.436956 21.0923997 18.436956 22.4901781 12.8877095"></polygon>
                                <g id="Group-11" transform="translate(0.000000, 18.020022)">
                                    <rect id="Rectangle-13" fill-opacity="0.5" x="15.9677419" y="27.2538013" width="15.9677419" height="9.60936482"></rect>
                                    <g id="Group-9">
                                        <path d="M5.98790323,16.2660856 C8.99925768,5.42202854 14.9871709,9.25314147e-16 23.9516429,0 C32.916115,0 38.9040082,5.42202854 41.9153226,16.2660856 L41.9153226,20.2772993 L41.9153226,20.2772993 C41.9153226,25.8025543 37.4362184,30.2816585 31.9109634,30.2816585 L15.9922624,30.2816585 L15.9922624,30.2816585 C10.4670074,30.2816585 5.98790323,25.8025543 5.98790323,20.2772993 L5.98790323,16.2660856 Z M23.8672451,23.8574317 C28.2300202,23.8574317 31.7667482,20.3096168 31.7667482,15.9331652 C31.7667482,11.5567137 28.2300202,8.00889878 23.8672451,8.00889878 C19.50447,8.00889878 15.9677419,11.5567137 15.9677419,15.9331652 C15.9677419,20.3096168 19.50447,23.8574317 23.8672451,23.8574317 Z" id="Combined-Shape"></path>
                                        <g id="Group-8" transform="translate(0.000000, 34.037820)">
                                            <path d="M5.98790323,13.68718 C5.98790323,13.8114384 5.98790323,0.0337640498 5.98790323,0 C2.68087559,0 0,3.06397961 0,6.84359001 C0,10.6232004 2.68087559,13.68718 5.98790323,13.68718 Z" id="Oval-4" fill-opacity="0.5"></path>
                                            <path d="M27.3563576,39.4544847 C27.3563576,39.5998927 27.3563576,23.4771757 27.3563576,23.4376649 C23.5955805,23.4376649 20.5468682,27.0231521 20.5468682,31.4460748 C20.5468682,35.8689975 23.5955805,39.4544847 27.3563576,39.4544847 Z" id="Oval-4" fill-opacity="0.5" transform="translate(23.951613, 31.446564) rotate(-90.000000) translate(-23.951613, -31.446564) "></path>
                                            <path d="M47.9032258,13.68718 C47.9032258,13.8114384 47.9032258,0.0337640498 47.9032258,0 C44.5961982,0 41.9153226,3.06397961 41.9153226,6.84359001 C41.9153226,10.6232004 44.5961982,13.68718 47.9032258,13.68718 Z" id="Oval-4" fill-opacity="0.5" transform="translate(44.909274, 6.844008) scale(-1, 1) translate(-44.909274, -6.844008) "></path>
                                            <path d="M5.98790323,0 L41.9153226,0 L41.9153226,8.00889878 L5.98790323,8.00889878 L5.98790323,0 Z M9.97983871,8.00889878 L37.9233871,8.00889878 L37.9233871,22.0285302 C37.9233871,25.3436832 35.2359246,28.0311457 31.9207716,28.0311457 C29.2643899,28.0311457 26.6080083,28.0311457 23.9516266,28.0311457 C21.2952358,28.0311457 18.638845,28.0311457 15.9824542,28.0311457 L15.9824542,28.0311457 C12.6673012,28.0311457 9.97983871,25.3436832 9.97983871,22.0285302 L9.97983871,8.00889878 Z" id="Combined-Shape"></path>
                                        </g>
                                    </g>
                                </g>
                                <ellipse id="Oval-6" cx="23.9516129" cy="34.0378198" rx="3.99193548" ry="4.00444939"></ellipse>
                            </g>
                        </g>
                    </g>
                </g>
            </g>
        </g>
    </g>
</svg>