<?xml version="1.0" encoding="UTF-8"?>
<svg width="200px" height="200px" viewBox="0 0 200 200" version="1.1" xmlns="http://www.w3.org/2000/svg" xmlns:xlink="http://www.w3.org/1999/xlink">
    <!-- Generator: Sketch 45.2 (43514) - http://www.bohemiancoding.com/sketch -->
    <title>003-job-search</title>
    <desc>Created with Sketch.</desc>
    <defs></defs>
    <g id="Page-1" stroke="none" stroke-width="1" fill="none" fill-rule="evenodd">
        <g id="Group-65" transform="translate(-1341.000000, -6212.000000)" fill-rule="nonzero" fill="#FFFFFF">
            <g id="Group-63" transform="translate(0.000000, 5617.000000)">
                <g id="Group-71" transform="translate(225.000000, 595.000000)">
                    <g id="Group-85" transform="translate(894.000000, 0.000000)">
                        <g id="003-job-search" transform="translate(322.000000, 100.000000) scale(-1, 1) translate(-322.000000, -100.000000) translate(222.000000, 0.000000)">
                            <path d="M137.305263,0.000390625 C102.950487,0.000390625 75.0007797,28.0046875 75.0007797,62.4269531 C75.0007797,75.2011719 78.8526316,87.0898437 85.4506823,96.9933594 C85.2463938,97.1730469 85.0467836,97.3589844 84.854191,97.5519531 C80.7711501,101.642969 80.1668616,107.917969 83.037037,112.658203 L73.0877193,122.626953 C71.1832359,121.464062 68.9922027,120.841406 66.7048733,120.841406 C63.4194932,120.841406 60.3309942,122.123437 58.0074074,124.451172 L3.59649123,178.967969 C-1.19883041,183.773047 -1.19883041,191.591406 3.59649123,196.396484 C5.99415205,198.798828 9.14385965,200 12.2939571,200 C15.4440546,200 18.5933723,198.798828 20.991423,196.396484 L75.4023392,141.878906 C77.7255361,139.551562 79.0050682,136.456641 79.0050682,133.164453 C79.0050682,130.873047 78.3836257,128.677734 77.2230019,126.769141 L87.1723197,116.800391 C89.1251462,117.9875 91.3376218,118.583203 93.5516569,118.583203 C96.7013645,118.583203 99.851462,117.382031 102.249123,114.979297 C102.441715,114.786328 102.625731,114.585156 102.805068,114.380469 C112.689669,120.991406 124.555556,124.851953 137.306043,124.851953 C171.661209,124.851953 199.610916,96.8476562 199.610916,62.4257812 C199.610136,28.0046875 171.660429,0.000390625 137.305263,0.000390625 Z M16.8561404,192.253125 C14.3407407,194.773047 10.2475634,194.773047 7.73177388,192.253125 C5.21637427,189.732812 5.21637427,185.631641 7.73177388,183.110937 L55.6690058,135.080078 L64.7933723,144.222266 L16.8561404,192.253125 Z M71.2670565,137.735937 L68.9282651,140.079297 L59.8038986,130.937109 L62.1426901,128.59375 C63.3610136,127.373047 64.9812865,126.700391 66.7044834,126.700391 C68.4276803,126.700391 70.0479532,127.373047 71.2666667,128.59375 C72.4853801,129.814453 73.1563353,131.437891 73.1563353,133.164844 C73.157115,134.891797 72.48577,136.514844 71.2670565,137.735937 Z M88.9894737,110.837109 C86.4888889,108.331641 86.4764133,104.264453 88.9477583,101.741016 C91.6662768,105.091406 94.7235867,108.154687 98.0678363,110.878906 C95.548538,113.354687 91.4900585,113.342578 88.9894737,110.837109 Z M137.305263,118.992969 C106.175439,118.992969 80.8491228,93.6171875 80.8491228,62.4265625 C80.8491228,31.2355469 106.175439,5.85976562 137.305263,5.85976562 C168.435867,5.85976562 193.762183,31.2355469 193.762183,62.4265625 C193.762183,93.6175781 168.435867,118.992969 137.305263,118.992969 Z" id="Shape"></path>
                            <path d="M174.690838,34.4125 C173.722027,33.1179688 171.889669,32.8550781 170.597271,33.8257813 C169.305263,34.7964844 169.043275,36.6328125 170.011696,37.9273438 C175.846004,45.725 178.698635,55.4050781 178.043665,65.184375 C177.45809,73.9234375 174.083431,82.2066406 168.466667,88.853125 L151.444834,80.3253906 C150.310721,79.7570312 149.605848,78.6148438 149.605848,77.3441406 L149.605848,73.1925781 C153.436257,69.7851562 155.85692,64.8191406 155.85692,59.2953125 L155.85692,55.9605469 C155.924366,55.9609375 155.990643,55.9625 156.05809,55.9625 C157.672904,55.9625 158.982066,54.6507812 158.982066,53.0328125 L158.982066,46.7695313 C158.982066,36.5207031 150.660039,28.1828125 140.431579,28.1828125 L134.180897,28.1828125 C123.952047,28.1828125 115.630409,36.5210938 115.630409,46.7695313 L115.630409,53.0324219 C115.630409,54.6503906 116.939571,55.9621094 118.554386,55.9621094 C118.578558,55.9621094 118.648733,55.9613281 118.755556,55.9570312 L118.755556,59.2949219 C118.755556,64.81875 121.175439,69.7847656 125.006238,73.1917969 L125.006238,77.34375 C125.006238,78.6144531 124.301754,79.7566406 123.167641,80.325 L106.14152,88.8550781 C92.5590643,72.7992187 93.3224172,48.6414062 108.435478,33.4988281 C115.426511,26.4941406 124.702144,22.271875 134.553996,21.6089844 C144.31462,20.9519531 153.975439,23.8101562 161.757895,29.6566406 C163.050292,30.6273437 164.883041,30.3644531 165.851462,29.0699219 C166.819883,27.7753906 166.557895,25.9390625 165.265887,24.9683594 C156.363743,18.28125 145.315789,15.0125 134.162183,15.7628906 C122.897466,16.5203125 112.292398,21.3476562 104.300585,29.3554687 C86.1009747,47.590625 86.1009747,77.2621094 104.300585,95.4972656 C113.40039,104.614844 125.353996,109.173828 137.306823,109.173828 C149.260429,109.173828 161.213645,104.615234 170.31306,95.4972656 C178.305263,87.4894531 183.123197,76.8640625 183.879142,65.5773437 C184.62729,54.3996094 181.364522,43.3316406 174.690838,34.4125 Z M121.477973,49.5003906 L121.477973,46.7695312 L121.477973,46.7695312 C121.477973,39.7515625 127.176218,34.0421875 134.180507,34.0421875 L140.430799,34.0421875 C147.435088,34.0421875 153.133333,39.7515625 153.133333,46.7695312 L153.133333,50.0238281 C140.422222,49.3367187 132.750877,44.3808594 132.676803,44.3320312 C132.182066,44.0015625 131.617544,43.8398437 131.05575,43.8398437 C130.300975,43.8398437 129.552437,44.1316406 128.987135,44.6980469 C126.189864,47.5011719 123.448733,48.8507813 121.477973,49.5003906 Z M124.603119,59.2957031 L124.603119,54.5722656 L124.603119,54.5722656 C126.651072,53.7523438 129.037037,52.4484375 131.465497,50.3761719 C134.536062,51.9773438 140.960624,54.7441406 150.008187,55.6582031 L150.008187,59.2957031 C150.008187,66.3136719 144.309942,72.0230469 137.305653,72.0230469 C130.301365,72.0230469 124.603119,66.3132813 124.603119,59.2957031 Z M134.381676,103.2125 C125.782846,102.598438 117.34191,99.2742188 110.45614,93.2441406 L125.782066,85.5660156 C126.300195,85.3066406 126.782456,85 127.231969,84.6589844 L134.381676,91.8226563 L134.381676,103.2125 Z M137.305263,86.4652344 L130.548148,79.6953125 C130.745419,78.9398438 130.853411,78.1519531 130.853411,77.3441406 L130.853411,76.7203125 C132.863938,77.4703125 135.037037,77.8820312 137.305263,77.8820312 C139.573099,77.8820312 141.746589,77.4703125 143.756725,76.7207031 L143.756725,77.34375 C143.756725,78.1519531 143.864717,78.9394531 144.061988,79.6949219 L137.305263,86.4652344 Z M140.230019,103.212891 L140.230019,91.8226563 L147.379727,84.6589844 C147.82924,85 148.311501,85.3066406 148.82963,85.5660156 L164.155556,93.2441406 C157.269006,99.2757812 148.830019,102.600391 140.230019,103.212891 Z" id="Shape"></path>
                        </g>
                    </g>
                </g>
            </g>
        </g>
    </g>
</svg>