<?xml version="1.0" encoding="UTF-8"?>
<svg width="311px" height="400px" viewBox="0 0 311 400" version="1.1" xmlns="http://www.w3.org/2000/svg" xmlns:xlink="http://www.w3.org/1999/xlink">
    <!-- Generator: Sketch 45.2 (43514) - http://www.bohemiancoding.com/sketch -->
    <title>3</title>
    <desc>Created with Sketch.</desc>
    <defs>
        <linearGradient x1="11.7317832%" y1="9.79863151%" x2="85.682295%" y2="118.291108%" id="linearGradient-1">
            <stop stop-color="#EDF8FB" offset="0%"></stop>
            <stop stop-color="#FFFFFF" offset="100%"></stop>
        </linearGradient>
    </defs>
    <g id="Page-1" stroke="none" stroke-width="1" fill="none" fill-rule="evenodd">
        <g id="Group-65" transform="translate(-416.000000, -4680.000000)" fill="url(#linearGradient-1)">
            <g id="Group-23">
                <g id="Group-44" transform="translate(0.000000, 1430.000000)">
                    <g id="Group-75" transform="translate(416.000000, 1224.000000)">
                        <g id="3" transform="translate(0.000000, 2026.000000)">
                            <g id="Group-50">
                                <path d="M204.685658,279.510703 C204.685658,303.975535 183.911591,316.207951 160.082515,316.207951 C125.866405,316.207951 103.259332,299.69419 102.037328,262.996942 L0,259.938838 C0,345.565749 59.2671906,400 160.082515,400 C249.899804,400 311,359.633028 311,287.461774 C311,240.366972 282.89391,206.116208 232.180747,197.553517 C268.229862,192.66055 301.223969,161.46789 301.223969,114.984709 C301.223969,46.4831804 249.288802,0 158.249509,0 C61.7111984,0 4.88801572,63.6085627 4.88801572,143.119266 L104.481336,147.400612 C104.481336,111.314985 121.589391,83.7920489 155.194499,83.7920489 C183.911591,83.7920489 198.575639,100.30581 198.575639,125.993884 C198.575639,152.905199 177.19057,166.360856 154.583497,166.360856 C144.807466,166.360856 131.365422,166.360856 125.255403,165.137615 L125.255403,239.143731 C135.642436,237.920489 146.02947,237.920489 153.361493,237.920489 C182.689587,237.920489 204.685658,251.376147 204.685658,279.510703 Z" id="3"></path>
                            </g>
                        </g>
                    </g>
                </g>
            </g>
        </g>
    </g>
</svg>