<?xml version="1.0" encoding="UTF-8"?>
<svg width="81px" height="81px" viewBox="0 0 81 81" version="1.1" xmlns="http://www.w3.org/2000/svg" xmlns:xlink="http://www.w3.org/1999/xlink">
    <!-- Generator: Sketch 45.2 (43514) - http://www.bohemiancoding.com/sketch -->
    <title>003-job-search</title>
    <desc>Created with Sketch.</desc>
    <defs></defs>
    <g id="Page-1" stroke="none" stroke-width="1" fill="none" fill-rule="evenodd">
        <g id="Group" transform="translate(-536.000000, -840.000000)" fill-rule="nonzero" fill="#FF294E">
            <g id="Group-15" transform="translate(88.000000, 703.000000)">
                <g id="Group-71" transform="translate(0.000000, 137.000000)">
                    <g id="Group-85" transform="translate(359.511806, 0.000000)">
                        <g id="003-job-search" transform="translate(128.946528, 40.500000) scale(-1, 1) translate(-128.946528, -40.500000) translate(88.946528, 0.000000)">
                            <path d="M54.9697807,0.000156385634 C41.2159416,0.000156385634 30.0263538,11.2115988 30.0263538,24.9924573 C30.0263538,30.1065803 31.568432,34.866177 34.2099433,38.831022 C34.1281569,38.9029594 34.0482436,38.977399 33.9711397,39.0546535 C32.3365056,40.6924802 32.0945804,43.204659 33.2436471,45.1023987 L29.2604654,49.0933601 C28.4980107,48.6278 27.6208367,48.3785213 26.7051107,48.3785213 C25.3898179,48.3785213 24.1533459,48.891779 23.2231044,49.823681 L1.43984527,71.6493292 C-0.479948424,73.5730288 -0.479948424,76.7030873 1.43984527,78.626787 C2.39974212,79.5885586 3.66071881,80.0694444 4.92185158,80.0694444 C6.18298435,80.0694444 7.44380496,79.5885586 8.40385789,78.626787 L30.187117,56.800826 C31.1172025,55.8690804 31.6294596,54.630037 31.6294596,53.3120189 C31.6294596,52.3946608 31.3806668,51.5157735 30.9160143,50.7516733 L34.899196,46.7607119 C35.6810047,47.2359679 36.5667632,47.474456 37.453146,47.474456 C38.7141227,47.474456 39.9752554,46.9935701 40.9351523,46.0316421 C41.0122562,45.9543876 41.0859263,45.873849 41.1577235,45.7919029 C45.1149958,48.4385734 49.8654707,49.9841326 54.9700929,49.9841326 C68.724088,49.9841326 79.9136758,38.7726902 79.9136758,24.9919881 C79.9133637,11.2115988 68.7237759,0.000156385634 54.9697807,0.000156385634 Z M6.74830897,76.9680046 C5.74127572,77.9768483 4.10258352,77.9768483 3.0953942,76.9680046 C2.08836095,75.9590044 2.08836095,74.3171117 3.0953942,73.3079552 L22.2869319,54.0789341 L25.9398466,57.7389834 L6.74830897,76.9680046 Z M28.5315681,55.1422 L27.5952395,56.0803574 L23.9423247,52.420308 L24.8786533,51.4821506 C25.3664058,50.9934455 26.0150776,50.7241494 26.7049547,50.7241494 C27.3948317,50.7241494 28.0435035,50.9934455 28.531412,51.4821506 C29.0193206,51.9708557 29.2879356,52.6207944 29.2879356,53.3121753 C29.2882478,54.0035562 29.0194767,54.6533385 28.5315681,55.1422 Z M35.6266886,44.3733289 C34.6255864,43.3702714 34.6205918,41.7419842 35.609988,40.731733 C36.6983393,42.0730526 37.9223248,43.2994287 39.2611858,44.3900621 C38.2525918,45.3812343 36.6277908,45.3763863 35.6266886,44.3733289 Z M54.9697807,47.6385045 C42.5070419,47.6385045 32.3677217,37.479381 32.3677217,24.9923009 C32.3677217,12.5050644 42.5070419,2.34594089 54.9697807,2.34594089 C67.4328317,2.34594089 77.5721518,12.5050644 77.5721518,24.9923009 C77.5721518,37.4795374 67.4328317,47.6385045 54.9697807,47.6385045 Z" id="Shape"></path>
                            <path d="M69.9369918,13.7769488 C69.5491311,13.2586868 68.8155514,13.1534393 68.2981435,13.5420576 C67.7808918,13.9306759 67.6760055,14.6658447 68.0637102,15.1841067 C70.3994592,18.3058767 71.5415023,22.1812691 71.2792866,26.0963835 C71.0448533,29.5950429 69.693818,32.9112002 67.445162,35.5721018 L60.6305187,32.158047 C60.1764797,31.9305059 59.8942857,31.4732343 59.8942857,30.9645119 L59.8942857,29.3024453 C61.4277794,27.9382935 62.396885,25.9501629 62.396885,23.7387137 L62.396885,22.4036495 C62.423887,22.4038059 62.4504207,22.4044314 62.4774227,22.4044314 C63.1239093,22.4044314 63.6480286,21.8792885 63.6480286,21.2315392 L63.6480286,18.7240519 C63.6480286,14.620962 60.3163281,11.2829107 56.2213925,11.2829107 L53.5028686,11.2829107 C49.407777,11.2829107 46.2923132,14.6211184 46.2923132,18.7240519 L46.2923132,21.2313828 C46.2923132,21.8791321 46.8164325,22.404275 47.4629191,22.404275 C47.4725961,22.404275 47.5006907,22.4039623 47.5434568,22.402242 L47.5434568,23.7385573 C47.5434568,25.9500065 48.5122502,27.9381371 50.0459001,29.3021326 L50.0459001,30.9643555 C50.0459001,31.4730779 49.7638621,31.9303495 49.3098231,32.1578906 L42.4934629,35.5728837 C37.0557643,29.144965 37.3613705,19.4734519 43.4118422,13.4111628 C46.2106829,10.6068556 49.9241571,8.91648329 53.8683186,8.65109687 C57.7759572,8.38805623 61.6436391,9.53232992 64.7593238,11.8729537 C65.2767316,12.261572 66.0104674,12.1563245 66.3981721,11.6380625 C66.7858768,11.1198005 66.6809905,10.3846316 66.1637388,9.99601332 C62.59979,7.31884766 58.1767727,6.01021267 53.7114574,6.31062948 C49.2016591,6.61386122 44.9559495,8.54647488 41.7564494,11.7523804 C34.470286,19.0527745 34.470286,30.9316709 41.7564494,38.232065 C45.3995311,41.8822621 50.1851241,43.7074388 54.970405,43.7074388 C59.7559981,43.7074388 64.541435,41.8824185 68.1843607,38.232065 C71.3840168,35.0261595 73.3128632,30.7723139 73.6155038,26.2537074 C73.9150229,21.7787325 72.6087828,17.347702 69.9369918,13.7769488 Z M48.6333689,19.8173439 L48.6333689,18.7240519 L48.6333689,18.7240519 C48.6333689,15.9144276 50.9146457,13.6286952 53.7187932,13.6286952 L56.2210804,13.6286952 C59.0252278,13.6286952 61.3065046,15.9144276 61.3065046,18.7240519 L61.3065046,20.0269006 C56.2176466,19.7518183 53.1464449,17.7677538 53.1167896,17.7482056 C52.9187231,17.6159033 52.6927181,17.5511597 52.4678057,17.5511597 C52.1656333,17.5511597 51.8659581,17.6679797 51.639641,17.8947389 C50.5197613,19.0169622 49.4223573,19.5572746 48.6333689,19.8173439 Z M49.8845125,23.73887 L49.8845125,21.847855 L49.8845125,21.847855 C50.7044049,21.5196015 51.6596193,20.9975863 52.6318466,20.1679605 C53.8611389,20.8089852 56.4331942,21.9166646 60.055361,22.282607 L60.055361,23.73887 C60.055361,26.5484943 57.7740842,28.8342268 54.9699368,28.8342268 C52.1657893,28.8342268 49.8845125,26.5483379 49.8845125,23.73887 Z M53.7993309,41.3208377 C50.356813,41.0749995 46.9775079,39.7441577 44.220809,37.3300327 L50.3565008,34.2561167 C50.5639322,34.1522766 50.7570041,34.0295139 50.9369653,33.8929892 L53.7993309,36.7609454 L53.7993309,41.3208377 Z M54.9697807,34.6161164 L52.2645885,31.905797 C52.3435654,31.6033472 52.3867997,31.2879173 52.3867997,30.9645119 L52.3867997,30.714764 C53.1917084,31.0150244 54.0617027,31.1798549 54.9697807,31.1798549 C55.8777026,31.1798549 56.747853,31.0150244 57.5526056,30.7149204 L57.5526056,30.9643555 C57.5526056,31.2879173 57.59584,31.6031908 57.6748168,31.9056406 L54.9697807,34.6161164 Z M56.1406988,41.3209941 L56.1406988,36.7609454 L59.0030644,33.8929892 C59.1830255,34.0295139 59.3760974,34.1522766 59.5835288,34.2561167 L65.7192207,37.3300327 C62.9622096,39.7447833 59.5836849,41.0757814 56.1406988,41.3209941 Z" id="Shape"></path>
                        </g>
                    </g>
                </g>
            </g>
        </g>
    </g>
</svg>